<?xml version="1.0" encoding="UTF-8"?>
<svg width="3e3px" height="3e3px" enable-background="new -998.9902344 -186.9384766 3000 3000" version="1.1" viewBox="-998.9902344 -186.9384766 3000 3000" xmlns="http://www.w3.org/2000/svg" xmlns:xlink="http://www.w3.org/1999/xlink">
 <path d="m410.9 169.69c42.357-25.414 88.95 0 118.6 21.179 29.65 21.178 47.139 65.469 42.357 88.95-3.8818 19.061 0 46.592 0 46.592s12.35 47.666 0 84.714c-12.707 38.122-33.886 72.008-72.007 80.479-38.121 8.4717-93.99-19.675-114.36-42.356-27.12-30.194-50.828-97.422-42.356-156.72 8.4707-59.3 67.771-122.84 67.771-122.84z" fill="#A46C35"/>
 <path d="m364.31 303.11c-23.296-31.768-55.063-33.886-57.182-8.4717s-8.4717 2.1182-2.1182 25.414c6.3535 23.297 25.414 52.946 33.886 55.064s23.297 0 23.297-14.825 2.1172-57.182 2.1172-57.182z" fill="#A46C35"/>
 <path d="m520.33 572.78c7.7646-2.8223 60.006 18.355 66.359 26.827s19.061 61.418 23.296 86.832 21.179 243.55 27.532 271.08 6.3535 67.771 6.3535 67.771 16.943 25.414 16.943 69.889 8.4707 271.08 10.589 292.26 8.4717 44.475 16.942 63.535c8.4717 19.061 16.943 50.829 16.943 50.829s-16.943 29.649-33.886 48.71-67.771 16.943-69.89 0c-2.1172-16.942-4.2354-69.889 6.3535-91.067 10.59-21.179 0-65.653-10.589-101.66-10.589-36.003-31.768-139.78-31.768-194.84s2.1182-116.48 2.1182-116.48-46.593-150.37-52.946-207.55c-6.3545-57.182-2.1182-118.6-2.1182-129.19 0-10.589-36.004-16.942-42.357-46.593-6.3535-29.649 24.263-80.96 50.123-90.362z" fill="#A46C35"/>
 <path d="m336.78 343.35s57.182-46.593 108.01 4.2354 25.414 146.13 33.886 182.13c8.4717 36.004 46.593 42.357 65.653 46.594 19.061 4.2354 6.3535 23.296 21.179 57.182s86.832 116.48 86.832 167.31c0 50.828-36.004 57.182-44.476 95.303-8.4707 38.121-21.178 55.064-29.649 76.243-8.4717 21.178-14.825 91.067-14.825 105.89 0 14.824 2.1182 52.946-25.414 103.77s-59.3 76.242-59.3 76.242-141.9 25.415-158.84-12.707c-16.942-38.121-59.3-137.66-59.3-160.96 0-23.297 33.886-95.304 29.649-120.72-4.2354-25.414-16.942-40.239-31.767-76.243-14.825-36.003-23.296-65.653-27.532-93.185-4.2358-27.532-27.532-192.72-2.1177-218.14 25.414-25.415 52.946-38.122 74.125-44.476 21.178-6.3535 29.649-27.532 33.886-40.239 4.2354-12.707 2.1172-86.832 2.1172-116.48 0-29.65-2.1172-31.768-2.1172-31.768z" fill="#A46C35"/>
 <path d="m279.6 548.78c23.297 8.4707 80.479 108.01 61.418 150.37-19.061 42.356-57.183 44.475-74.125 65.653-16.943 21.179-69.889 122.83-82.596 135.54-12.707 12.707 57.182 63.535 91.068 88.949s95.303 52.946 101.66 52.946 76.243-40.239 86.832-36.003c10.59 4.2354 40.239 19.061 55.064 36.003 14.825 16.943 19.061 23.297 29.65 33.886s0 72.007-19.062 61.418c-19.061-10.59-2.1172-40.239-16.942-33.886s-40.239 14.825-61.418 19.061-50.828 14.825-67.771 4.2354c-16.942-10.589-135.54-14.824-173.66-36.003-38.121-21.179-186.37-88.95-199.08-112.25-12.708-23.297-19.061-80.479 10.589-129.19 29.65-48.71 103.77-124.95 105.89-141.9 2.1182-16.943 27.532-69.89 44.475-82.597s33.886-31.768 57.182-48.71c23.296-16.943 50.828-27.532 50.828-27.532z" fill="#A46C35"/>
 <path d="m193.47 1108.6c-12.091 18.513-43.062 35.299-51.534 126.37-8.4717 91.067 0 129.19 8.4712 171.55 8.4717 42.357 19.061 127.07 27.532 167.31s4.2358 194.84 4.2358 230.85c0 36.003 2.1177 67.771-10.589 91.067-12.707 23.297-43.062 88.247-48.71 120.72-3.6299 20.864-4.2358 86.832-4.2358 110.13 0 23.297 27.532 152.49 27.532 169.43 0 16.942 10.589 95.303 10.589 110.13s-25.414 50.828-33.885 67.771c-8.4717 16.942-10.589 61.417 4.2354 72.007 14.825 10.589 101.66 93.186 118.6 112.25 16.943 19.061 61.418 25.414 84.714 27.532 23.297 2.1172 31.769 6.3535 48.711 0s29.65-27.532 25.414-36.004c-6.8291-13.658-48.71-40.239-65.653-59.3-16.942-19.061-46.593-108.01-48.711-127.07-2.1172-19.061-6.3535-275.32-2.1172-302.85 4.2354-27.532 40.239-177.9 52.946-201.2 12.707-23.297 31.768-110.13 31.768-131.31 0-21.178 88.95-230.85 91.067-292.26 2.1182-61.418 0-120.72-19.061-218.14-19.061-97.422-36.003-222.38-112.25-275.32-41.894-29.094-116.48 31.768-139.07 66.358z" fill="#A46C35"/>
 <path d="m434.2 1173.5c74.124-21.179 97.421 27.532 116.48 52.946s84.714 171.55 99.539 220.26 31.768 290.15 31.768 332.5c0 42.356 0 97.421 2.1182 108.01 2.1182 10.59 6.3535 44.476 8.4717 65.653 2.1172 21.179-19.061 404.51-25.414 429.92-6.3535 25.414-14.825 78.36-14.825 101.66 0 23.297 10.589 101.66 12.707 122.84 2.1182 21.178-3.1768 62.477-25.414 79.419-14.997 11.425-54.006 10.589-72.007-7.4121-10.59-10.59-21.179-29.65-21.179-48.711s8.4717-42.357 8.4717-52.946-8.4717-33.886-8.4717-55.064 14.825-91.067 14.825-116.48-48.711-268.97-52.947-296.5c-4.2354-27.532-3.6826-112.32-6.3535-131.31-6.3535-45.179-33.885-91.068-33.885-186.37 0-95.304-27.532-330.38-27.532-370.62s-65.937-230.77-6.3535-247.79z" fill="#A46C35"/>
 <path d="m606.38 890.5s-23.926-13.449-29.22-20.861c-5.2949-7.4131-8.4717-23.297-8.4717-23.297s10.589 16.943 14.825 22.237c4.2354 5.2949 22.866 21.921 22.866 21.921" fill="#7F5425"/>
 <path d="m548.56 2437.9s33.885-8.4717 61.417-6.3535 57.183 8.4717 57.183 8.4717l-4.2363 21.179s-31.768-8.4717-50.828-10.59c-19.061-2.1172-52.946 4.2363-59.3 6.3535-6.3535 2.1182-4.2354-19.061-4.2354-19.061z" fill="#231F20"/>
 <path d="m549.27 2469.7l4.2354 2.8252s32.121-2.8252 53.3-2.8252 55.418 9.8818 55.418 9.8818l-1.4121 14.122s-41.652-4.9424-52.947-4.9424c-11.294 0-47.3 2.1133-54.358 3.5283-7.0586 1.4141-1.4102 31.06-1.4102 50.828s8.4707 40.946 2.8232 34.593c-5.6484-6.3535-9.8848-13.41-14.12-37.414s8.4717-70.597 8.4717-70.597z" fill="#231F20"/>
 <path d="m329.37 2683.6c-15.151 0-29.845-1.7871-43.596-6.6553 0 0 25.631-24.426 35.588-32.566 10.126-8.2812 44.737-33.116 44.737-33.116l-14.765-17.1s-31.313 21.505-41.749 30.084c-11.769 9.6748-47.077 42.94-47.077 42.94-10.279-4.9727-31.521-28.646-40.795-39.358-11.64-13.443-41.108-37.228-45.887-54.356-2.0127-7.2139 4.2354-27.532 4.2354-29.65s16.238-31.768 25.415-25.414c14.775 10.229 93.185-31.768 93.185-31.768l-4.2354-19.061s-25.545 11.788-33.886 14.824c-15.45 5.6221-50.829 16.943-63.536 12.708-12.707-4.2363 2.0229-18.396 23.296-19.062 22.591-0.70703 72.007-33.886 72.007-33.886l-4.2354-27.531s-29.629 21.749-42.357 27.531c-13.636 6.1924-50.828 14.825-67.771 4.2363-16.943-10.59-31.768-21.179-31.768-21.179s-14.825 19.061-23.296 29.65c-8.4717 10.589-16.943 38.121-14.825 63.535 2.1182 25.414 10.589 42.357 19.061 57.182 8.4717 14.825 12.707 36.004 25.415 61.418 12.707 25.414 16.943 29.65 23.296 21.179s-8.4717-61.418-8.4717-61.418 12.707 10.59 23.296 19.061c10.589 8.4717 27.532 36.004 46.593 65.653 19.061 29.65 110.2 43.123 152.48 12.707 30.18-21.708 13.237-48.181 13.237-48.181s-2.7861 22.411-19.075 32.347c-13.551 8.2646-36.246 5.2451-54.521 5.2451z" fill="#231F20"/>
 <path d="m665.05 2607.3s2.3223 17.451-2.1182 20.648c-10.903 7.8594-36.006-11.47-50.123-11.47s-42.85 11.246-56.475 11.292c-3.8018 0.012695-9.8838-1.4102-9.8838-1.4102s-5.6484 14.117-5.6484 22.589 14.12 34.593 26.827 43.771c11.271 8.1406 22.589 12.707 40.944 12.707s26.826-8.4717 35.298-15.532 8.4717-7.0605 8.4717-7.0605 11.336-15.867 14.119-22.589c2.5859-6.2422 6.2881-19.954 5.4707-27.003-0.75098-6.4863-6.8828-25.943-6.8828-25.943zm-33.886 78.36c-14.058 9.0957-31.768 9.5303-43.416 3.1768s-25.414-20.12-29.65-27.532c-4.2354-7.4131-4.2354-16.943-4.2354-16.943s38.121-8.4707 57.183-8.4707c19.061 0 48.71 14.825 48.71 14.825s-10.589 23.296-28.591 34.944z" fill="#231F20"/>
 <path d="m444.79 307.35s4.2363-12.707 33.886-10.589c29.649 2.1177 31.768 21.178 31.768 21.178s-14.825 10.59-31.768 8.4717c-22.949-2.8682-33.886-19.061-33.886-19.061z" fill="#fff"/>
 <path d="m546.45 316.53s-1.7812-11.273 9.8838-14.12c14.472-3.5303 17.119 16.854 15.53 24.001-1.7871 8.0391-11.297 5.6484-18.355 1.4131-7.0586-4.2363-7.0586-11.295-7.0586-11.295z" fill="#fff"/>
 <defs>
  <path id="f" d="m444.79 307.35s4.2363-12.707 33.886-10.589c29.649 2.1177 31.768 21.178 31.768 21.178s-14.825 10.59-31.768 8.4717c-22.949-2.8682-33.886-19.061-33.886-19.061z"/>
 </defs>
 <clipPath id="g">
  <use overflow="visible" xlink:href="#f"/>
 </clipPath>
 <circle cx="479.73" cy="304.17" r="19.061" clip-path="url(#g)" fill="#231F20"/>
 <defs>
  <path id="e" d="m546.45 316.53s-1.7812-11.273 9.8838-14.12c14.472-3.5303 18.052 16.188 15.53 24.001-2.6475 8.207-11.297 5.6484-18.355 1.4131-7.0586-4.2363-7.0586-11.295-7.0586-11.295z"/>
 </defs>
 <clipPath id="h">
  <use overflow="visible" xlink:href="#e"/>
 </clipPath>
 <circle cx="567.62" cy="305.23" r="19.061" clip-path="url(#h)" fill="#231F20"/>
 <path d="m444.79 307.35s-1.6689-18.947 33.886-14.825c36.533 4.2358 31.768 25.414 31.768 25.414s-14.825-4.2354-31.768-6.353c-22.949-2.8687-33.886-4.2358-33.886-4.2358z" fill="#A46C35"/>
 <path d="m546.45 316.53s-4.3252-12.444 10.324-15.268c14.626-2.8188 15.443 14.207 15.443 14.207s-4.8271 2.4707-13.061 2.4707c-9.3525-1e-7 -12.707-1.4102-12.707-1.4102z" fill="#A46C35"/>
 <path d="m435.26 287.23c4.5781-5.5923 10.087-10.433 16.262-14.39 3.0811-1.998 6.4082-3.6567 9.9287-4.9634 3.5264-1.2705 7.332-2.0742 11.257-1.9575 3.8984 0.22119 7.4697 1.042 11.016 2.0615 3.5156 1.0791 6.958 2.3179 10.261 3.8516 6.6201 3.0078 12.907 6.6802 18.578 11.162-6.5713-2.9648-13.141-5.7344-19.807-8.0933-3.3486-1.1279-6.6846-2.2471-10.084-3.0493-1.6943-0.41309-3.3887-0.79785-5.0928-1.0864-0.84668-0.14941-1.7109-0.28809-2.5342-0.39648-0.92871-0.12207-1.6426-0.18604-2.4805-0.21777-3.252-0.11816-6.5869 0.51465-9.8398 1.5176-3.2744 0.98047-6.4326 2.4502-9.5576 4.0244-6.209 3.2578-12.136 7.2275-17.906 11.537z" fill="#231F20"/>
 <path d="m552.8 285.11c0.69238-1.9043 1.7979-3.4824 3.0771-4.9072 1.3037-1.4053 2.7969-2.6538 4.6758-3.5757 0.95215-0.43994 1.9902-0.84033 3.3135-0.90967 0.32129-0.015137 0.7334 0.013672 0.90625 0.038574 0.22949 0.022949 0.55371 0.067383 0.79199 0.11768 0.51367 0.091309 1.0156 0.22656 1.5029 0.39258 1.9346 0.67773 3.6846 1.832 4.793 3.5493-1.9951-0.18506-3.7285-0.29736-5.373-0.26904-0.40918 0.0078125-0.81055 0.02832-1.2041 0.051758l-0.57129 0.049805c-0.28223 0.016602-0.3252 0.035156-0.45801 0.068848-0.49414 0.11865-1.1816 0.38818-1.8672 0.72705-1.3984 0.67529-2.8965 1.5415-4.4609 2.3706-1.5801 0.82764-3.2158 1.6548-5.126 2.2954z" fill="#231F20"/>
 <path d="m542.21 305.23c-0.17871 5.5215 0.1123 11.013 0.82129 16.424 0.68359 5.4102 1.8369 10.735 3.4834 15.864 0.83887 2.5596 1.8193 5.0625 2.917 7.499 0.54785 1.2139 1.1709 2.4033 1.7783 3.707 0.59766 1.2705 1.1709 2.5557 1.7139 3.8564 2.127 5.2148 3.8223 10.692 4.3906 16.508 0.23828 2.9033 0.17383 5.9121-0.58105 8.9053-0.75293 2.958-2.3447 5.9844-4.9561 8.0078-0.64062 0.50586-1.3311 0.94434-2.0479 1.3145l-0.26855 0.13867-0.28418 0.12988c-0.16992 0.074219-0.47363 0.20117-0.65527 0.25781-0.41504 0.14648-0.82324 0.25195-1.2246 0.33789-1.6055 0.33301-3.1055 0.35645-4.5664 0.31836-2.916-0.088867-5.6816-0.52832-8.4131-0.95996-2.7236-0.43066-5.4287-0.88184-8.04-1.0605-1.2793-0.078125-2.6221-0.067383-3.5439 0.27246-0.55176 0.23145-1.2695 0.55469-1.9365 0.7959-0.67383 0.25-1.3564 0.48828-2.0625 0.66895-1.4072 0.36328-2.8818 0.59473-4.3877 0.50293-1.4932-0.092773-3.0469-0.57227-4.2129-1.5645-1.1787-0.9707-1.9268-2.2998-2.3564-3.6494-0.41309-1.3623-0.59082-2.7676-0.51172-4.1504 0.16602 1.3691 0.52441 2.709 1.1074 3.916 0.56836 1.2061 1.3945 2.2783 2.4551 2.9375 2.1406 1.3623 4.8799 0.94238 7.2812 0.023438 0.60938-0.22754 1.2148-0.48438 1.8105-0.76758 0.60938-0.28125 1.126-0.57129 1.8184-0.93164 1.6387-0.73633 3.1338-0.76855 4.5889-0.83008 2.9033-0.041992 5.665 0.30957 8.4082 0.55762 2.7334 0.25391 5.4463 0.52441 8.0459 0.52832 1.29-0.0078125 2.5664-0.09668 3.6523-0.37109 0.27051-0.067383 0.52734-0.14648 0.75879-0.23926 0.14551-0.053711 0.15723-0.06543 0.30273-0.12988l0.18262-0.091797 0.18652-0.10547c0.49707-0.28027 0.96387-0.60156 1.3916-0.9668 1.7266-1.4395 2.8633-3.542 3.4199-5.9102 0.58203-2.3643 0.64648-4.9463 0.4209-7.5234-0.42285-5.1855-1.9795-10.372-3.8887-15.392-0.47461-1.2607-0.97949-2.5127-1.5107-3.7559-0.51172-1.2148-1.1211-2.4922-1.6611-3.8115-1.0957-2.6191-1.9736-5.3174-2.6816-8.0469-1.4473-5.4561-2.1768-11.05-2.3848-16.624-0.14355-5.5732 0.12988-11.161 1.2402-16.59z" fill="#231F20"/>
 <path d="m499.85 420.65c4.2979 0.26953 8.4795 0.73438 12.641 1.1484 4.1543 0.41797 8.2812 0.81836 12.345 0.94629 4.0352 0.12793 8.1162-0.14355 12.241-0.56348 4.1279-0.4209 8.2744-0.99219 12.543-1.5312-3.7148 2.209-7.7793 3.7109-11.955 4.8047-4.1816 1.0615-8.5459 1.6621-12.955 1.5234-4.3789-0.1416-8.6445-0.85938-12.801-1.9072-4.1484-1.0771-8.2148-2.4531-12.059-4.4209z" fill="#231F20"/>
 <path d="m359.02 290.41c3.9502-8.1406 1.7656-43.062 20.119-48.003 15.201-4.0933 21.179-38.829 45.534-47.3 24.355-8.4712 67.771-7.4121 85.772 5.2949 18.002 12.707 22.767 34.944 43.945 43.416 10.635 4.2539 19.921 20.115 21.708 5.8237 2.1182-16.943 28.592-4.2358 30.709-19.59 0.27539-1.9917 8.2188-4.1079 9.1768-7.9419 1.0586-4.2358-0.35156-6.7075-3.0879-7.2368-1.0957-0.21094-2.4404 0.086914-3.4414 1.3237-3.3525 4.1484 1.1475 4.4136 1.1475 4.4136s-2.293-0.79443-0.35352-2.4717c0.68262-0.58936 1.293-0.72412 1.8535-0.61865 1.4121 0.26514 1.7803 1.4316 1.2344 3.7065-0.48633 2.0269-4.8604 2.0308-6.3535 0.70752-2.4688-2.1885-0.82715-8.666-1.2344-9.8843-1.1787-3.5239-2.7344-9.8921-6.3535-9.5303-10.59 1.0591-7.4131-9.5303-7.4131-25.414 0-15.884-10.589-34.945-21.178-39.18-10.59-4.2358-24.355-2.1182-27.532-4.2358s-7.4131-15.884-12.707-20.12c-5.2949-4.2358-10.59-19.061-15.884-19.061-5.2949 0-7.4131-13.766-14.825-11.648-7.4121 2.1182-16.943-4.2354-16.943-4.2354s-47.651-75.184-84.714-78.361-122.83 23.296-128.13 54.005c-5.2944 30.709-11.648 46.593-11.648 52.946s-10.589 14.825-10.589 27.532 2.1177 30.708 7.4121 33.885c5.2949 3.1768 33.886 41.298 33.886 41.298s-1.0586 30.709 0 47.651c1.0586 16.943 13.061 42.711 22.945 41.298 24.752-3.5366 35.296 15.533 46.944-8.4712z" fill="#231F20"/>
 <path d="m544.33 576.32c18.483 6.293 10.59 23.296 25.414 57.182 14.825 33.886 86.832 120.72 86.832 171.55s-31.768 52.946-40.239 91.067-27.523 69.846-30.354 92.48c-2.8262 22.591-5.6484 88.244-5.6484 103.07s-25.414 110.13-25.414 110.13 60.677 132.17 74.83 165.19c25.414 59.3 43.77 129.9 49.417 232.96 8.6436 157.71 15.53 314.86 15.53 314.86s-65.018-9.8936-144.01-9.8857c-76.449 0.0087891-203.79 12.666-280.97 8.4717-77.389-4.2031-99.409-7.5449-97.421-21.179 9.8843-67.771 2.8252-111.54 4.2358-256.96 1.001-103.31-40.946-215.41-48.003-338.86-2.8252-49.418 1.4106-111.54 42.357-169.43 32.943-46.574 78.893-65.8 93.186-80.478 16.25-16.693 15.53-61.42 11.295-86.834-4.2358-25.415-23.665-82.994-38.122-126.37-7.0591-21.179 19.061-47.298 50.829-64.241 29.19-15.567 121.89-72.938 31.768-173.66-36.004-40.237-48.71-37.412-72.712-40.237 18.179-12.585 74.83-43.771 79.065-56.479 1.127-3.3809 148.25 80.479 183.55 170.84 8.54 21.859 17.619 41.613 25.114 57.052 15.83 32.605 22.581 64.493 23.597 75.668 5.3213 58.51-21.983 89.032-19.769 127.78 2.1367 37.368 26.122 85.419 26.122 85.419s8.8457-45.794 22.756-93.123c12.738-43.331 30.732-81.355 30.19-120.78-0.70801-51.536-16.238-68.48-55.771-122.13-25.909-35.159-45.181-110.13-45.181-110.13s24.12 5.8965 27.532 7.0596z" fill="#FAEE49"/>
 <rect transform="matrix(.84713 .53139 -.53139 .84713 408.36 -171.24)" x="436.15" y="620.73" width="131.29" height="6.7683" fill="#FAEE49"/>
 <rect transform="matrix(-.35475 .93496 -.93496 -.35475 1299.9 395.6)" x="447.81" y="642.97" width="131.29" height="6.7682" fill="#FAEE49"/>
 <rect transform="matrix(.92692 .37525 -.37525 .92692 303.2 -155.51)" x="485.21" y="697.32" width="131.29" height="6.768" fill="#FAEE49"/>
 <rect transform="matrix(-.18598 .98255 -.98255 -.18598 1350.2 314.02)" x="479.39" y="712.94" width="131.29" height="6.7658" fill="#FAEE49"/>
 <polygon points="606.38 890.5 538.08 778.37 543.85 774.85 612.16 886.98" fill="#FAEE49"/>
 <rect transform="matrix(-.73528 .67776 -.67776 -.73528 1580.2 1098.4)" x="509.95" y="854.39" width="131.29" height="6.7673" fill="#FAEE49"/>
 <polygon points="591.79 942.66 511.99 849.71 517 845.16 596.8 938.11" fill="#FAEE49"/>
 <rect transform="matrix(-.59386 .80457 -.80457 -.59386 1653.8 1016.9)" x="504.56" y="922.49" width="131.29" height="6.7683" fill="#FAEE49"/>
 <rect transform="matrix(-.63779 .77021 -.77021 -.63779 1532 839.79)" x="502.89" y="776.74" width="131.29" height="6.7687" fill="#FAEE49"/>
 <path d="m444.79 307.35s-0.33398-3.4082 35.221 0.71387c36.533 4.2358 30.433 9.875 30.433 9.875s-14.825-4.2354-31.768-6.353c-22.949-2.8687-33.886-4.2358-33.886-4.2358z" fill="#231F20"/>
 <path d="m546.45 316.53s-2.1064-0.080566 12.563-2.7979c9-1.667 13.204 1.7373 13.204 1.7373s-4.8271 2.4707-13.061 2.4707c-9.3525 0-12.707-1.4102-12.707-1.4102z" fill="#231F20"/>
 <path d="m426.43 710.45c-16.942 1.4102-32.471 2.8203-43.768 5.6455s-22.591 4.2363-22.591 4.2363 2.8232-18.354 16.942-18.354c14.12 0-19.766-9.1787-19.766-9.1787s-10.589 28.239-26.827 44.475c-8.9307 8.9287-69.184 45.181-76.242 50.829-7.0586 5.6475-15.53 22.591-15.53 26.826 0 4.2363 14.118 9.8818 15.53 24.002 1.4126 14.119 5.6484 4.2354 1.4126 14.119-4.2358 9.8848 8.4712 1.4131 15.53 18.355 7.0591 16.943 7.0591 26.825 7.0591 31.061 0 4.2363 7.0605 21.179 7.0605 21.179s7.0586-18.355 11.294-25.414c4.2363-7.0586 97.422-14.118 97.422-14.118s-79.066 1.4111-83.302-7.0605 73.42-1.4102 84.714-2.8232c11.295-1.4121 48.004 1.4131 48.004 1.4131s24.004 8.4688 1.4121 14.117c-22.591 5.6484 18.3 9.8838 36.709 9.8838 38.121 0 67.066-43.062 67.066-43.062s-33.645 12.506-65.654 6.3516c-36.711-7.0596-53.651-24.002-59.3-24.002-5.6475 0-28.237 12.707-49.415 12.707-21.179 0 32.475 4.2373 50.828 2.8252 18.354-1.4131 0.70703 9.8818-4.2363 9.8818-4.9424 0-14.824 2.8252-27.531 3.5303s-36.004-2.8232-50.123-2.8232c-14.12 0-37.416 7.7646-37.416-0.70703s1.4121-16.235 5.6475-15.53c4.2363 0.70508-1.4121 0.70508 4.2363 0.70508 5.6475 0-6.3516-11.294 3.5303-11.294s26.826-0.70801 36.003 0.70508c9.1768 1.4121 55.768 0 31.061-4.2363-24.706-4.2354-62.123-6.3535-74.83-7.0586s-33.18-14.119-7.7656-16.942 36.003-7.0586 48.71-2.8232 31.769 11.297 39.534 10.589c7.7666-0.70703-12.705-2.8252-19.766-9.1787-7.0615-6.3535 18.355-9.8818 27.532-9.8818s-4.9434-5.6484-24.004-5.6484-31.061 3.5303-47.298 3.5303-30.355-4.9404-19.061-6.3535c11.294-1.4121 41.649-8.4707 60.005-9.8838 18.355-1.4121 29.649-4.2354 31.768-4.2354s-65.653 4.2354-76.948-2.1182c-11.294-6.3535 0.70801-10.589 12.002-10.589 11.295 0 27.532-0.70703 45.181-7.7666 17.647-7.0586 41.651-20.471 41.651-20.471s-45.182 16.235-60.712 16.235-9.8848-9.8838-4.2363-10.59c5.6484-0.70508 12.002-4.9385 25.414-5.6455 13.413-0.70801-27.531 0-8.4707-7.7666 19.061-7.7656 51.533-17.647 51.533-17.647z" fill="#F2E74A"/>
 <path d="m488.56 1261.1c-1.4121 16.943-11.297 14.118 7.0586 21.179s38.12 9.8857 45.181-1.4102c7.0605-11.297 15.532-31.062 15.532-31.062s-9.8857 9.8838-24.004 12.707c-14.117 2.8232-28.235-4.2363-35.296-4.2363s-8.4717 2.8232-8.4717 2.8232z" fill="#F2E74A"/>
 <path d="m501.27 1323.2s38.121-5.6455 45.181-8.4707c7.0586-2.8252 35.298-18.355 35.298-18.355s1.4131 14.117-12.707 19.766c-14.119 5.6484-32.473 11.295-38.121 11.295s-29.65-4.2344-29.65-4.2344z" fill="#F2E74A"/>
 <path d="m512.56 1365.6c2.8232 11.297 18.354-16.943 36.709-16.943s42.356-18.353 42.356-18.353-18.355 31.064-33.886 36.71c-15.53 5.6465-25.414 14.114-36.708 7.0576-11.295-7.0576-8.4717-8.4717-8.4717-8.4717z" fill="#F2E74A"/>
 <path d="m518.21 1422s18.354-15.532 36.709-28.239c18.354-12.707 43.77-26.825 43.77-26.825s-11.297 21.179-24.004 31.061-56.475 24.004-56.475 24.004z" fill="#F2E74A"/>
 <path d="m519.62 1477.1s31.061-33.89 42.357-43.771c11.296-9.8828 53.653-32.472 53.653-32.472s-18.355 16.943-26.827 25.414c-8.4707 8.4717-21.178 21.175-29.649 28.235-8.4717 7.0615-39.534 22.594-39.534 22.594z" fill="#F2E74A"/>
 <path d="m498.44 1542.1s33.886-36.707 50.829-48.004c16.942-11.296 28.239-26.829 45.182-40.946s38.121-14.117 38.121-14.117-12.707 8.4707-24.709 20.471c-12.001 12-24.706 23.297-34.591 31.768-9.8838 8.4717-35.296 24.004-46.593 33.886-11.296 9.8818-28.239 16.943-28.239 16.943z" fill="#F2E74A"/>
 <path d="m617.04 1484.2s-18.353 7.0645-31.06 18.357c-12.708 11.292-18.357 15.532-36.711 38.121s-24.858 29.906-36.709 35.296c-15.53 7.0615-18.355 12.708-18.355 12.708s42.357-14.118 64.948-42.357c12.535-15.669 25.416-28.235 35.298-35.296l9.8818-7.0615 12.707-19.768z" fill="#F2E74A"/>
 <path d="m456.08 1649.4s93.186-77.653 103.07-81.889c9.8838-4.2363 42.356-16.943 42.356-16.943s-88.949 57.89-93.186 62.125c-4.2354 4.2363-52.24 36.707-52.24 36.707z" fill="#F2E74A"/>
 <path d="m447.61 1677.6c9.8838 2.8252 54.363 9.874 60.712-7.0566 8.4717-22.589 91.773-94.601 91.773-94.601s-50.828 31.061-62.123 42.357-32.473 28.239-43.77 38.126c-11.297 9.8857-46.593 21.174-46.593 21.174z" fill="#F2E74A"/>
 <path d="m392.55 1746.8c5.6484 9.8867 21.179 1.415 38.122-2.8213 16.942-4.2354 25.616-8.376 43.77-5.6504 28.237 4.2402 22.591-9.877 35.298-19.764 12.707-9.8857 53.809-16.496 39.532-18.357-32.474-4.2314-57.888 0.0039063-72.008 4.2402-14.119 4.2354-42.356 16.942-53.651 22.589-11.294 5.6465-31.063 19.764-31.063 19.764z" fill="#F2E74A"/>
 <path d="m362.9 1775s46.593-12.707 69.184-16.942 101.66-12.703 97.421 1.415c-4.3701 14.563-22.591 18.353-52.241 12.702-23.941-4.5625-42.356 5.6504-67.771 9.8867-25.414 4.2354-46.593-7.0615-46.593-7.0615z" fill="#F2E74A"/>
 <path d="m338.9 1800.4s60.713-8.4678 120.01-7.0615c22.583 0.53418 105.89 22.594 105.89 22.594s-86.075 4.2354-105.89 4.2354c-48.006 0-83.304 16.938-115.78 15.528l-32.474-1.4111s8.4717-5.6504 12.707-11.296c4.2363-5.6465 15.53-22.589 15.53-22.589z" fill="#F2E74A"/>
 <path d="m288.07 1845.6s91.774 8.4717 115.78 8.4717 46.593-4.2363 77.653-4.2363 88.949-5.6504 105.89-5.6504c16.942 0-7.0566 7.0576-35.296 12.708s-101.66 16.946-135.54 18.357c-33.886 1.4102-76.245 2.8203-96.011 1.4102s-40.944-5.6465-40.944-5.6465 21.181-5.6455 31.062-8.4707-22.591-16.943-22.591-16.943z" fill="#F2E74A"/>
 <path d="m218.88 1584.4c8.4712-16.942 47.435-53.566 77.655-74.832 38.122-26.824 64.949-91.774 64.949-91.774s-15.533 83.304-60.713 107.31c-44.696 23.748-81.891 59.3-81.891 59.3z" fill="#F2E74A"/>
 <path d="m191.44 919.94s-14.472-7.2344-28.591-14.296c-6.3701-3.1846-36.268-16.413-36.268-16.413s31.002 10.618 38.514 12.746c4.4014 1.2471 17.609 0.75488 17.609 0.75488s-0.22754 3.252 0.5293 4.7656c1.8472 3.6934 8.207 12.442 8.207 12.442z" fill="#7F5425"/>
 <path d="m626.92 1023.2l-33.886 12.707s6.3535 12.707 14.824 10.589c8.4717-2.1172 19.062-23.296 19.062-23.296z" fill="#7F5425"/>
</svg>
