<?xml version='1.0' encoding='utf-8'?>
<svg xmlns="http://www.w3.org/2000/svg" enable-background="new 0 0 1268.764 1705.75" version="1.1" viewBox="0 0 1268.764 1705.75">
	<path d="m951.63 472.77l-252.06 8.682c-4.676-62.068-13.04-125.33 20.533-207 26.366-64.096 97.099-114.73 164.36-83.757 92.657 42.642 97.066 156.03 67.163 282.08zm-111.41-216.11c-77.639 1.777-105.33 98.424-116.74 215.12l219.26-3.553c2.867-134.51-30.405-213.22-102.51-211.56z" fill="#fff"/>
	<path d="m546.04 491.52l-252.06-8.682c-29.903-126.05-25.494-239.42 67.163-282.08 67.264-30.975 138 19.661 164.35 83.757 33.591 81.678 25.227 144.94 20.55 207zm-243.18-13.225l219.27 3.553c-11.415-116.69-39.121-213.34-116.74-215.12-72.108-1.659-105.4 77.053-102.53 211.56z" fill="#fff"/>
	<path d="m366.27 366.3c7.207 7.191 18.89 7.191 26.081 0 7.207-7.207 7.207-18.873 0-26.081-7.191-7.207-18.873-7.207-26.081 0-7.19 7.207-7.19 18.873 0 26.081zm-63.408 112c-2.866-134.51 30.422-213.22 102.53-211.56 77.622 1.777 105.33 98.423 116.74 215.12l-219.27-3.553zm88.903-194.38c-11.465 11.465-11.465 30.037 0 41.485 11.448 11.465 30.02 11.465 41.485 0 11.448-11.448 11.448-30.02 0-41.485-11.466-11.448-30.037-11.448-41.485 0z"/>
	<path d="m853.84 273.84c-11.448-11.448-30.02-11.448-41.485 0-11.448 11.465-11.448 30.037 0 41.485 11.465 11.465 30.037 11.465 41.485 0 11.448-11.448 11.448-30.02 0-41.485zm-0.587 56.302c-7.207 7.207-7.207 18.873 0 26.081 7.191 7.191 18.873 7.191 26.064 0 7.207-7.207 7.207-18.873 0-26.081-7.191-7.207-18.873-7.207-26.064 0zm-13.041-73.482c72.108-1.659 105.38 77.053 102.51 211.56l-219.26 3.553c11.415-116.69 39.105-213.34 116.74-215.12z"/>
	<path d="m731.9 725.13c-0.922-18.471-28.645-32.098-61.934-30.439-33.288 1.659-59.52 17.985-58.598 36.456s28.645 32.098 61.934 30.439c33.288-1.659 59.52-17.968 58.598-36.456zm-55.716-98.524c71.722 8.548 126.43 73.298 122.18 144.64-4.241 71.337-65.822 122.24-137.54 113.69-71.722-8.532-126.42-73.298-122.18-144.64s65.823-122.24 137.54-113.69z" fill="#C43A2A"/>
	<path d="m826.54 1220.8c67.499 4.14 88.45 83.455 95.893 148.69-69.711 114.92-165 168.32-294.22 114.43-37.428-15.605-71.303-35.316-101.94-58.648-30.271-66.476-18.907-121.24 28.444-161.8 45.809-39.222 111.82 5.515 183.32 82.165 0.453-63.543 29.702-128.44 88.501-124.84z" fill="#BC3528"/>
	<path d="m1156.8 469.42c3.922 3.922 3.922 10.292 0 14.214-3.939 3.922-10.308 3.922-14.231 0-3.922-3.922-3.922-10.292 0-14.214 3.923-3.939 10.292-3.939 14.231 0z"/>
	<path d="m1139 514.45c-3.922 3.922-10.292 3.922-14.231 0-3.922-3.939-3.922-10.308 0-14.23 3.939-3.922 10.308-3.922 14.231 0 3.922 3.921 3.922 10.291 0 14.23z"/>
	<path d="m1126 468.22c-3.922 3.922-10.292 3.922-14.214 0-3.939-3.922-3.939-10.292 0-14.231 3.922-3.922 10.292-3.922 14.214 0 3.922 3.94 3.922 10.309 0 14.231z"/>
	<path d="m1113 485.99c3.939 3.939 3.939 10.308 0 14.23-3.922 3.922-10.292 3.922-14.214 0-3.939-3.922-3.939-10.292 0-14.23 3.922-3.923 10.291-3.923 14.214 0z"/>
	<path d="m1100.5 440.37c3.922 3.922 3.922 10.292 0 14.231-3.939 3.922-10.292 3.922-14.23 0-3.922-3.939-3.922-10.308 0-14.231 3.938-3.922 10.291-3.922 14.23 0z"/>
	<path d="m1086.3 471.19c3.939 3.922 3.939 10.292 0 14.214-3.922 3.922-10.292 3.922-14.214 0-3.939-3.922-3.939-10.292 0-14.214 3.922-3.939 10.292-3.939 14.214 0z"/>
	<path d="m853.26 356.22c-7.207-7.207-7.207-18.873 0-26.081 7.191-7.207 18.873-7.207 26.064 0 7.207 7.207 7.207 18.873 0 26.081-7.191 7.191-18.873 7.191-26.064 0z" fill="#fff"/>
	<path d="m812.36 273.84c11.465-11.448 30.037-11.448 41.485 0 11.448 11.465 11.448 30.037 0 41.485-11.448 11.465-30.02 11.465-41.485 0-11.448-11.448-11.448-30.02 0-41.485z" fill="#fff"/>
	<path d="m731.9 725.13c0.922 18.488-25.31 34.797-58.598 36.456s-61.012-11.968-61.934-30.439 25.31-34.797 58.598-36.456 61.012 11.968 61.934 30.439z" fill="#fff"/>
	<path d="m391.76 325.4c-11.465-11.448-11.465-30.02 0-41.485 11.448-11.448 30.02-11.448 41.485 0 11.448 11.465 11.448 30.037 0 41.485-11.466 11.465-30.037 11.465-41.485 0z" fill="#fff"/>
	<path d="m366.27 340.22c7.207-7.207 18.89-7.207 26.081 0 7.207 7.207 7.207 18.873 0 26.081-7.191 7.191-18.873 7.191-26.081 0-7.19-7.208-7.19-18.874 0-26.081z" fill="#fff"/>
	<path d="m182.56 481.27c3.939 3.922 3.939 10.292 0 14.214-3.922 3.922-10.292 3.922-14.214 0s-3.922-10.292 0-14.214c3.923-3.939 10.292-3.939 14.214 0z"/>
	<path d="m162.42 451.63c3.939 3.922 3.939 10.292 0 14.214-3.922 3.939-10.292 3.939-14.214 0-3.939-3.922-3.939-10.292 0-14.214 1.961-1.961 4.526-2.95 7.107-2.95s5.146 0.989 7.107 2.95z"/>
	<path d="m154.12 497.86c3.939 3.922 3.939 10.292 0 14.214-3.922 3.922-10.292 3.922-14.214 0-3.939-3.922-3.939-10.292 0-14.214 3.923-3.939 10.292-3.939 14.214 0z"/>
	<path d="m132.78 465.84c3.939 3.939 3.939 10.308 0 14.231-3.671 3.671-9.504 3.905-13.459 0.687-0.251-0.218-0.503-0.436-0.754-0.687-3.922-3.922-3.922-10.292 0-14.231 3.921-3.922 10.291-3.922 14.213 0z"/>
	<path d="m125.09 511.49c3.922 3.922 3.922 10.292 0 14.214-3.922 3.939-10.292 3.939-14.231 0-3.922-3.922-3.922-10.292 0-14.214 3.94-3.939 10.309-3.939 14.231 0z"/>
	<path d="m105.53 481.27c3.922 3.922 3.922 10.292 0 14.214s-10.292 3.922-14.214 0c-1.224-1.224-2.078-2.699-2.531-4.241-1.022-3.419-0.184-7.274 2.531-9.973 3.671-3.688 9.504-3.922 13.459-0.687 0.252 0.218 0.503 0.435 0.755 0.687z"/>
	<path d="m798.36 771.24c4.257-71.337-50.452-136.09-122.18-144.64-71.722-8.548-133.3 42.356-137.54 113.69s50.452 136.1 122.18 144.64c71.723 8.548 133.3-42.356 137.54-113.69z" fill="none" stroke="#000" stroke-linecap="round" stroke-miterlimit="10" stroke-width="18.438"/>
	<path d="m224.45 967.99c0.084 0.134 0.168 0.268 0.251 0.402 20.432 33.741 51.441 62.621 89.959 86.288 174.77 107.41 504.27 107.74 704.28-30.154 44.904-30.942 83.288-68.856 111.92-114.1 1.039-1.609 2.045-3.235 3.034-4.861" fill="none" stroke="#000" stroke-linecap="round" stroke-miterlimit="10" stroke-width="18.438"/>
	<path d="m1115.1 840.4s2.766 32.366 19.075 63.325c13.828 26.282 37.412 51.558 77.321 55.196" fill="none" stroke="#000" stroke-linecap="round" stroke-miterlimit="10" stroke-width="18.438"/>
	<path d="m237.88 889.76s8.046 35.4-13.175 78.628c-8.515 17.365-21.756 36.004-42.138 54.123" fill="none" stroke="#000" stroke-linecap="round" stroke-miterlimit="10" stroke-width="18.438"/>
	<path d="m309.78 1059.6c39.188 152.9 107.09 282.33 216.49 365.67 30.64 23.332 64.515 43.043 101.94 58.648 129.21 53.888 224.5 0.486 294.22-114.43 4.207-6.939 8.331-14.096 12.353-21.472 50.536-92.624 90.931-199.91 116.16-321.59" fill="none" stroke="#000" stroke-linecap="round" stroke-miterlimit="10" stroke-width="18.438"/>
	<path d="m922.1 1367.2c-0.168-1.525 0.497 3.9 0.33 2.358-7.442-65.236-28.394-144.55-95.893-148.69-58.799-3.604-88.048 61.297-88.501 124.84-71.505-76.65-137.51-121.39-183.32-82.165-47.351 40.563-61.531 88.794-31.26 155.27" fill="none" stroke="#000" stroke-linecap="round" stroke-miterlimit="10" stroke-width="18.438"/>
	<path d="m815.48 1596.9s-48.206 111.41-177.79 19.745" fill="none" stroke="#000" stroke-linecap="round" stroke-miterlimit="10" stroke-width="18.438"/>
	<path d="m271.06 61.692s79.014-52.145 237.83 97.183" fill="none" stroke="#000" stroke-linecap="round" stroke-miterlimit="10" stroke-width="18.438"/>
	<path d="m226.81 177.06c54.559-52.564 121.24-80.405 202.28-79.014" fill="none" stroke="#000" stroke-linecap="round" stroke-miterlimit="10" stroke-width="18.438"/>
	<path d="m702.49 154.94s23.567-31.981 58.665-58.933c37.898-29.115 89.238-52.38 138.87-23.248" fill="none" stroke="#000" stroke-linecap="round" stroke-miterlimit="10" stroke-width="18.438"/>
	<path d="m967.19 185.74s-114.58-111.41-214.13-79.801" fill="none" stroke="#000" stroke-linecap="round" stroke-miterlimit="10" stroke-width="18.438"/>
	<path d="m293.98 482.84c-29.903-126.05-25.494-239.42 67.163-282.08 67.264-30.975 138 19.661 164.35 83.757 33.59 81.679 25.226 144.94 20.55 207l-252.06-8.682z" fill="none" stroke="#000" stroke-linecap="round" stroke-miterlimit="10" stroke-width="18.438"/>
	<path d="m84.592 526.3c-7.66-10.778-13.862-21.874-18.404-32.769-17.801-42.675-10.275-82.45 33.422-89.708 31.21-5.179 53.033 11.28 70.616 29.785 8.615 9.051 16.208 18.589 23.399 26.316 31.109 33.406 70.901 36.02 100.35 22.913" fill="none" stroke="#000" stroke-linecap="round" stroke-miterlimit="10" stroke-width="18.438"/>
	<path d="m522.14 481.85c-11.415-116.69-39.121-213.34-116.74-215.12-72.108-1.659-105.4 77.053-102.53 211.56l219.27 3.553z" fill="none" stroke="#000" stroke-linecap="round" stroke-miterlimit="10" stroke-width="18.438"/>
	<path d="m951.63 472.77c29.903-126.05 25.494-239.44-67.163-282.08-67.264-30.975-138 19.661-164.36 83.757-33.573 81.679-25.209 144.94-20.533 207l252.06-8.683z" fill="none" stroke="#000" stroke-linecap="round" stroke-miterlimit="10" stroke-width="18.438"/>
	<path d="m1161 516.23c37.68-53 39.825-113.36-15.018-122.48-46.496-7.727-72.141 32.601-94.032 56.101-31.109 33.406-70.884 36.02-100.33 22.913" fill="none" stroke="#000" stroke-linecap="round" stroke-miterlimit="10" stroke-width="18.438"/>
	<path d="m723.47 471.78c11.415-116.69 39.105-213.34 116.74-215.12 72.108-1.659 105.38 77.053 102.51 211.56l-219.26 3.553z" fill="none" stroke="#000" stroke-linecap="round" stroke-miterlimit="10" stroke-width="18.438"/>
</svg>