<?xml version="1.0" encoding="UTF-8"?>
<svg width="210mm" height="297mm" version="1.1" viewBox="0 0 744.09448819 1052.3622047" xmlns="http://www.w3.org/2000/svg" xmlns:xlink="http://www.w3.org/1999/xlink">
 <defs>
  <linearGradient id="w">
   <stop stop-color="#445016" offset="0"/>
   <stop stop-color="#445016" stop-opacity="0" offset="1"/>
  </linearGradient>
  <linearGradient id="x">
   <stop offset="0"/>
   <stop stop-opacity="0" offset="1"/>
  </linearGradient>
  <filter id="m" x="-.13954" y="-.17686" width="1.2791" height="1.3537" color-interpolation-filters="sRGB">
   <feGaussianBlur stdDeviation="3.3733088"/>
  </filter>
  <linearGradient id="y" x1="323.63" x2="320.36" y1="369.87" y2="370.73" gradientTransform="translate(-727.22 177.28)" gradientUnits="userSpaceOnUse" xlink:href="#x"/>
  <filter id="n" x="-.038807" y="-.033571" width="1.0776" height="1.0671" color-interpolation-filters="sRGB">
   <feGaussianBlur stdDeviation="0.099140589"/>
  </filter>
  <linearGradient id="z" x1="288.61" x2="288.61" y1="372.74" y2="370.79" gradientTransform="matrix(.36128 -.93246 .93246 .36128 -97.425 742.15)" gradientUnits="userSpaceOnUse" xlink:href="#w"/>
  <linearGradient id="q" x1="41.35" x2="131.87" y1="382.37" y2="411.71" gradientUnits="userSpaceOnUse">
   <stop stop-color="#677821" offset="0"/>
   <stop stop-color="#677821" stop-opacity="0" offset="1"/>
  </linearGradient>
  <linearGradient id="r" x1="221.89" x2="184.42" y1="443.89" y2="425" gradientUnits="userSpaceOnUse">
   <stop stop-color="#cdde87" offset="0"/>
   <stop stop-color="#cdde87" stop-opacity="0" offset="1"/>
  </linearGradient>
  <linearGradient id="s" x1="122.56" x2="129.29" y1="429.7" y2="408.12" gradientUnits="userSpaceOnUse" xlink:href="#w"/>
  <linearGradient id="t" x1="323.63" x2="320.36" y1="369.87" y2="370.73" gradientUnits="userSpaceOnUse" xlink:href="#x"/>
  <linearGradient id="u" x1="288.61" x2="288.61" y1="372.74" y2="370.79" gradientUnits="userSpaceOnUse" xlink:href="#w"/>
  <linearGradient id="aa" x1="416.41" x2="526.82" y1="515.38" y2="378.33" gradientTransform="matrix(1.5625 .15391 -.15391 1.5625 -432.9 -13.627)" gradientUnits="userSpaceOnUse">
   <stop stop-color="#786721" offset="0"/>
   <stop stop-color="#786721" stop-opacity="0" offset="1"/>
  </linearGradient>
 </defs>
 <g transform="translate(157.54 6.3016)">
  <g transform="matrix(1.0813 0 0 1.0813 -191.18 -75.305)">
   <g transform="matrix(1.0596 .61167 -.61167 1.0596 348.02 -45.825)">
    <g transform="translate(-36.555 -1.3539)">
     <ellipse cx="391.4" cy="371.57" rx="35.528" ry="28.031" fill="#666"/>
     <ellipse cx="391.4" cy="371.57" rx="29.009" ry="22.888" filter="url(#m)"/>
     <path d="m399.24 348.32a28.212 17.668 6.5366 0 0 -32.889 11.801 28.212 17.668 6.5366 0 0 -0.40819 4.7662 28.212 17.668 6.5366 0 1 30.481 -7.4891 28.212 17.668 6.5366 0 1 22.714 17.54 28.212 17.668 6.5366 0 0 2.4086 -4.3131 28.212 17.668 6.5366 0 0 -22.306 -22.304z" fill="#ccc" opacity=".4"/>
     <ellipse cx="403.8" cy="374.06" rx="9.1388" ry="8.8003" fill="#ccc" opacity=".2"/>
    </g>
    <ellipse cx="322.41" cy="371.24" rx="3.0656" ry="3.5437" fill="#666" filter="url(#n)"/>
    <ellipse cx="322.27" cy="371.24" rx="2.4738" ry="2.9986" fill="url(#t)"/>
    <path d="m263.01 374.08s-4.5952-4.7867-1.436-4.7867 60.739 0.71801 60.739 0.71801 0.85535 0.74429 0.99895 1.223-0.13735 1.6491-0.13735 1.6491z" fill="#676c53"/>
    <path d="m263.01 374.08s-4.5952-4.7867-1.436-4.7867 60.739 0.71801 60.739 0.71801 0.85535 0.74429 0.99895 1.223-0.13735 1.6491-0.13735 1.6491z" fill="url(#u)"/>
   </g>
   <g transform="matrix(.89885 -.83006 .83006 .89885 -142.45 390.54)">
    <g transform="translate(-36.555 -1.3539)">
     <ellipse cx="391.4" cy="371.57" rx="35.528" ry="28.031" fill="#666"/>
     <ellipse cx="391.4" cy="371.57" rx="29.009" ry="22.888" filter="url(#m)"/>
     <path d="m399.24 348.32a28.212 17.668 6.5366 0 0 -32.889 11.801 28.212 17.668 6.5366 0 0 -0.40819 4.7662 28.212 17.668 6.5366 0 1 30.481 -7.4891 28.212 17.668 6.5366 0 1 22.714 17.54 28.212 17.668 6.5366 0 0 2.4086 -4.3131 28.212 17.668 6.5366 0 0 -22.306 -22.304z" fill="#ccc" opacity=".4"/>
     <ellipse cx="403.8" cy="374.06" rx="9.1388" ry="8.8003" fill="#ccc" opacity=".2"/>
    </g>
    <ellipse cx="322.41" cy="371.24" rx="3.0656" ry="3.5437" fill="#666" filter="url(#n)"/>
    <ellipse cx="322.27" cy="371.24" rx="2.4738" ry="2.9986" fill="url(#t)"/>
    <path d="m263.01 374.08s-4.5952-4.7867-1.436-4.7867 60.739 0.71801 60.739 0.71801 0.85535 0.74429 0.99895 1.223-0.13735 1.6491-0.13735 1.6491z" fill="#676c53"/>
    <path d="m263.01 374.08s-4.5952-4.7867-1.436-4.7867 60.739 0.71801 60.739 0.71801 0.85535 0.74429 0.99895 1.223-0.13735 1.6491-0.13735 1.6491z" fill="url(#u)"/>
   </g>
   <g transform="matrix(-.58701 -1.6184 1.6184 -.58701 30.967 982.21)">
    <g transform="matrix(.086962 .99621 -.99621 .086962 487.24 169.17)">
     <path d="m19.79 375.89s3.5983-0.59971 7.7962 1.7991c4.198 2.3988 7.7962 6.5968 11.994 10.795 4.198 4.198 26.387 22.189 28.786 23.988s32.384 13.793 37.182 16.792 29.386 8.396 33.584 8.9957 25.788 2.3988 32.984 4.198 29.192 3.6383 40.181 5.3974 25.788 4.7977 25.788 4.7977-11.311-12.824-18.591-19.191c-7.2798-6.3663-14.727-12.411-25.188-18.591s-35.383-16.792-37.782-17.392-27.587-9.5954-31.185-9.5954c-3.5983 0-30.585-5.9971-34.184-5.9971-3.5983 0-32.984-4.7977-35.383-4.7977h-23.389l-13.194-4.198z" fill="#81922a"/>
     <path d="m19.79 375.89s3.5983-0.59971 7.7962 1.7991c4.198 2.3988 7.7962 6.5968 11.994 10.795 4.198 4.198 26.387 22.189 28.786 23.988s32.384 13.793 37.182 16.792 29.386 8.396 33.584 8.9957 25.788 2.3988 32.984 4.198 29.192 3.6383 40.181 5.3974 25.788 4.7977 25.788 4.7977-11.311-12.824-18.591-19.191c-7.2798-6.3663-14.727-12.411-25.188-18.591s-35.383-16.792-37.782-17.392-27.587-9.5954-31.185-9.5954c-3.5983 0-30.585-5.9971-34.184-5.9971-3.5983 0-32.984-4.7977-35.383-4.7977h-23.389l-13.194-4.198z" fill="url(#q)"/>
     <path d="m19.79 375.89s3.5983-0.59971 7.7962 1.7991c4.198 2.3988 7.7962 6.5968 11.994 10.795 4.198 4.198 26.387 22.189 28.786 23.988s32.384 13.793 37.182 16.792 29.386 8.396 33.584 8.9957 25.788 2.3988 32.984 4.198 29.192 3.6383 40.181 5.3974 25.788 4.7977 25.788 4.7977-11.311-12.824-18.591-19.191c-7.2798-6.3663-14.727-12.411-25.188-18.591s-35.383-16.792-37.782-17.392-27.587-9.5954-31.185-9.5954c-3.5983 0-30.585-5.9971-34.184-5.9971-3.5983 0-32.984-4.7977-35.383-4.7977h-23.389l-13.194-4.198z" fill="url(#r)"/>
     <path d="m19.79 375.89s3.5983-0.59971 7.7962 1.7991c4.198 2.3988 7.7962 6.5968 11.994 10.795 4.198 4.198 26.387 22.189 28.786 23.988s32.384 13.793 37.182 16.792 29.386 8.396 33.584 8.9957 25.788 2.3988 32.984 4.198 29.192 3.6383 40.181 5.3974 25.788 4.7977 25.788 4.7977-11.311-12.824-18.591-19.191c-7.2798-6.3663-14.727-12.411-25.188-18.591s-35.383-16.792-37.782-17.392-27.587-9.5954-31.185-9.5954c-3.5983 0-30.585-5.9971-34.184-5.9971-3.5983 0-32.984-4.7977-35.383-4.7977h-23.389l-13.194-4.198z" fill="url(#s)"/>
     <path d="m19.909 374.07c1.2868 0.65786 10.357 2.5261 13.492 4.7973 3.1353 2.2712 71.94 20.453 74.216 21.044 2.2759 0.59069 67.259 21.019 67.259 21.019s33.255 14.137 35.564 15.222c2.3095 1.0852 24.319 14.247 24.319 14.247" fill="none" stroke="#4a4a12" stroke-dashoffset="13.12" stroke-linecap="square" stroke-width="1.6"/>
     <path d="m42.898 379.71c6.4964 0.55247 17.41 0.30809 23.479 1.8832 6.069 1.5752 30.801 3.6217 35.089 4.5726 4.2877 0.95089 29.188 5.4702 31.728 6.2914s24.675 8.5094 27.743 9.7915c3.0681 1.2821 23.853 11.049 25.371 11.443s15.705 8.1249 18.61 10.66c2.9048 2.5353 20.53 16.989 20.53 16.989s-38.205-17.527-41.306-19.304c-3.1017-1.7767-34.273-10.839-37.341-12.121-3.0681-1.2821-37.144-12.879-41.167-13.6-4.0236-0.7204-27.738-6.0656-29.817-7.4149s-16.229-4.8598-16.229-4.8598z" fill="#bcd35f" opacity=".2"/>
    </g>
    <g transform="matrix(.067286 .7708 -.7708 .067286 472.65 255.83)">
     <path d="m19.79 375.89s3.5983-0.59971 7.7962 1.7991c4.198 2.3988 7.7962 6.5968 11.994 10.795 4.198 4.198 26.387 22.189 28.786 23.988s32.384 13.793 37.182 16.792 29.386 8.396 33.584 8.9957 25.788 2.3988 32.984 4.198 29.192 3.6383 40.181 5.3974 25.788 4.7977 25.788 4.7977-11.311-12.824-18.591-19.191c-7.2798-6.3663-14.727-12.411-25.188-18.591s-35.383-16.792-37.782-17.392-27.587-9.5954-31.185-9.5954c-3.5983 0-30.585-5.9971-34.184-5.9971-3.5983 0-32.984-4.7977-35.383-4.7977h-23.389l-13.194-4.198z" fill="#81922a"/>
     <path d="m19.79 375.89s3.5983-0.59971 7.7962 1.7991c4.198 2.3988 7.7962 6.5968 11.994 10.795 4.198 4.198 26.387 22.189 28.786 23.988s32.384 13.793 37.182 16.792 29.386 8.396 33.584 8.9957 25.788 2.3988 32.984 4.198 29.192 3.6383 40.181 5.3974 25.788 4.7977 25.788 4.7977-11.311-12.824-18.591-19.191c-7.2798-6.3663-14.727-12.411-25.188-18.591s-35.383-16.792-37.782-17.392-27.587-9.5954-31.185-9.5954c-3.5983 0-30.585-5.9971-34.184-5.9971-3.5983 0-32.984-4.7977-35.383-4.7977h-23.389l-13.194-4.198z" fill="url(#q)"/>
     <path d="m19.79 375.89s3.5983-0.59971 7.7962 1.7991c4.198 2.3988 7.7962 6.5968 11.994 10.795 4.198 4.198 26.387 22.189 28.786 23.988s32.384 13.793 37.182 16.792 29.386 8.396 33.584 8.9957 25.788 2.3988 32.984 4.198 29.192 3.6383 40.181 5.3974 25.788 4.7977 25.788 4.7977-11.311-12.824-18.591-19.191c-7.2798-6.3663-14.727-12.411-25.188-18.591s-35.383-16.792-37.782-17.392-27.587-9.5954-31.185-9.5954c-3.5983 0-30.585-5.9971-34.184-5.9971-3.5983 0-32.984-4.7977-35.383-4.7977h-23.389l-13.194-4.198z" fill="url(#r)"/>
     <path d="m19.79 375.89s3.5983-0.59971 7.7962 1.7991c4.198 2.3988 7.7962 6.5968 11.994 10.795 4.198 4.198 26.387 22.189 28.786 23.988s32.384 13.793 37.182 16.792 29.386 8.396 33.584 8.9957 25.788 2.3988 32.984 4.198 29.192 3.6383 40.181 5.3974 25.788 4.7977 25.788 4.7977-11.311-12.824-18.591-19.191c-7.2798-6.3663-14.727-12.411-25.188-18.591s-35.383-16.792-37.782-17.392-27.587-9.5954-31.185-9.5954c-3.5983 0-30.585-5.9971-34.184-5.9971-3.5983 0-32.984-4.7977-35.383-4.7977h-23.389l-13.194-4.198z" fill="url(#s)"/>
     <path d="m19.909 374.07c1.2868 0.65786 10.357 2.5261 13.492 4.7973 3.1353 2.2712 71.94 20.453 74.216 21.044 2.2759 0.59069 67.259 21.019 67.259 21.019s33.255 14.137 35.564 15.222c2.3095 1.0852 24.319 14.247 24.319 14.247" fill="none" stroke="#4a4a12" stroke-dashoffset="13.12" stroke-linecap="square" stroke-width="1.6"/>
     <path d="m42.898 379.71c6.4964 0.55247 17.41 0.30809 23.479 1.8832 6.069 1.5752 30.801 3.6217 35.089 4.5726 4.2877 0.95089 29.188 5.4702 31.728 6.2914s24.675 8.5094 27.743 9.7915c3.0681 1.2821 23.853 11.049 25.371 11.443s15.705 8.1249 18.61 10.66c2.9048 2.5353 20.53 16.989 20.53 16.989s-38.205-17.527-41.306-19.304c-3.1017-1.7767-34.273-10.839-37.341-12.121-3.0681-1.2821-37.144-12.879-41.167-13.6-4.0236-0.7204-27.738-6.0656-29.817-7.4149s-16.229-4.8598-16.229-4.8598z" fill="#bcd35f" opacity=".2"/>
    </g>
    <g transform="matrix(.93071 .36576 .36576 -.93071 -93.079 454.63)">
     <path d="m19.79 375.89s3.5983-0.59971 7.7962 1.7991c4.198 2.3988 7.7962 6.5968 11.994 10.795 4.198 4.198 26.387 22.189 28.786 23.988s32.384 13.793 37.182 16.792 29.386 8.396 33.584 8.9957 25.788 2.3988 32.984 4.198 29.192 3.6383 40.181 5.3974 25.788 4.7977 25.788 4.7977-11.311-12.824-18.591-19.191c-7.2798-6.3663-14.727-12.411-25.188-18.591s-35.383-16.792-37.782-17.392-27.587-9.5954-31.185-9.5954c-3.5983 0-30.585-5.9971-34.184-5.9971-3.5983 0-32.984-4.7977-35.383-4.7977h-23.389l-13.194-4.198z" fill="#81922a"/>
     <path d="m19.79 375.89s3.5983-0.59971 7.7962 1.7991c4.198 2.3988 7.7962 6.5968 11.994 10.795 4.198 4.198 26.387 22.189 28.786 23.988s32.384 13.793 37.182 16.792 29.386 8.396 33.584 8.9957 25.788 2.3988 32.984 4.198 29.192 3.6383 40.181 5.3974 25.788 4.7977 25.788 4.7977-11.311-12.824-18.591-19.191c-7.2798-6.3663-14.727-12.411-25.188-18.591s-35.383-16.792-37.782-17.392-27.587-9.5954-31.185-9.5954c-3.5983 0-30.585-5.9971-34.184-5.9971-3.5983 0-32.984-4.7977-35.383-4.7977h-23.389l-13.194-4.198z" fill="url(#q)"/>
     <path d="m19.79 375.89s3.5983-0.59971 7.7962 1.7991c4.198 2.3988 7.7962 6.5968 11.994 10.795 4.198 4.198 26.387 22.189 28.786 23.988s32.384 13.793 37.182 16.792 29.386 8.396 33.584 8.9957 25.788 2.3988 32.984 4.198 29.192 3.6383 40.181 5.3974 25.788 4.7977 25.788 4.7977-11.311-12.824-18.591-19.191c-7.2798-6.3663-14.727-12.411-25.188-18.591s-35.383-16.792-37.782-17.392-27.587-9.5954-31.185-9.5954c-3.5983 0-30.585-5.9971-34.184-5.9971-3.5983 0-32.984-4.7977-35.383-4.7977h-23.389l-13.194-4.198z" fill="url(#r)"/>
     <path d="m19.79 375.89s3.5983-0.59971 7.7962 1.7991c4.198 2.3988 7.7962 6.5968 11.994 10.795 4.198 4.198 26.387 22.189 28.786 23.988s32.384 13.793 37.182 16.792 29.386 8.396 33.584 8.9957 25.788 2.3988 32.984 4.198 29.192 3.6383 40.181 5.3974 25.788 4.7977 25.788 4.7977-11.311-12.824-18.591-19.191c-7.2798-6.3663-14.727-12.411-25.188-18.591s-35.383-16.792-37.782-17.392-27.587-9.5954-31.185-9.5954c-3.5983 0-30.585-5.9971-34.184-5.9971-3.5983 0-32.984-4.7977-35.383-4.7977h-23.389l-13.194-4.198z" fill="url(#s)"/>
     <path d="m19.909 374.07c1.2868 0.65786 10.357 2.5261 13.492 4.7973 3.1353 2.2712 71.94 20.453 74.216 21.044 2.2759 0.59069 67.259 21.019 67.259 21.019s33.255 14.137 35.564 15.222c2.3095 1.0852 24.319 14.247 24.319 14.247" fill="none" stroke="#4a4a12" stroke-dashoffset="13.12" stroke-linecap="square" stroke-width="1.6"/>
     <path d="m42.898 379.71c6.4964 0.55247 17.41 0.30809 23.479 1.8832 6.069 1.5752 30.801 3.6217 35.089 4.5726 4.2877 0.95089 29.188 5.4702 31.728 6.2914s24.675 8.5094 27.743 9.7915c3.0681 1.2821 23.853 11.049 25.371 11.443s15.705 8.1249 18.61 10.66c2.9048 2.5353 20.53 16.989 20.53 16.989s-38.205-17.527-41.306-19.304c-3.1017-1.7767-34.273-10.839-37.341-12.121-3.0681-1.2821-37.144-12.879-41.167-13.6-4.0236-0.7204-27.738-6.0656-29.817-7.4149s-16.229-4.8598-16.229-4.8598z" fill="#bcd35f" opacity=".2"/>
    </g>
    <g transform="matrix(.24609 .96925 -.96925 .24609 415.83 7.2634)">
     <path d="m19.79 375.89s3.5983-0.59971 7.7962 1.7991c4.198 2.3988 7.7962 6.5968 11.994 10.795 4.198 4.198 26.387 22.189 28.786 23.988s32.384 13.793 37.182 16.792 29.386 8.396 33.584 8.9957 25.788 2.3988 32.984 4.198 29.192 3.6383 40.181 5.3974 25.788 4.7977 25.788 4.7977-11.311-12.824-18.591-19.191c-7.2798-6.3663-14.727-12.411-25.188-18.591s-35.383-16.792-37.782-17.392-27.587-9.5954-31.185-9.5954c-3.5983 0-30.585-5.9971-34.184-5.9971-3.5983 0-32.984-4.7977-35.383-4.7977h-23.389l-13.194-4.198z" fill="#81922a"/>
     <path d="m19.79 375.89s3.5983-0.59971 7.7962 1.7991c4.198 2.3988 7.7962 6.5968 11.994 10.795 4.198 4.198 26.387 22.189 28.786 23.988s32.384 13.793 37.182 16.792 29.386 8.396 33.584 8.9957 25.788 2.3988 32.984 4.198 29.192 3.6383 40.181 5.3974 25.788 4.7977 25.788 4.7977-11.311-12.824-18.591-19.191c-7.2798-6.3663-14.727-12.411-25.188-18.591s-35.383-16.792-37.782-17.392-27.587-9.5954-31.185-9.5954c-3.5983 0-30.585-5.9971-34.184-5.9971-3.5983 0-32.984-4.7977-35.383-4.7977h-23.389l-13.194-4.198z" fill="url(#q)"/>
     <path d="m19.79 375.89s3.5983-0.59971 7.7962 1.7991c4.198 2.3988 7.7962 6.5968 11.994 10.795 4.198 4.198 26.387 22.189 28.786 23.988s32.384 13.793 37.182 16.792 29.386 8.396 33.584 8.9957 25.788 2.3988 32.984 4.198 29.192 3.6383 40.181 5.3974 25.788 4.7977 25.788 4.7977-11.311-12.824-18.591-19.191c-7.2798-6.3663-14.727-12.411-25.188-18.591s-35.383-16.792-37.782-17.392-27.587-9.5954-31.185-9.5954c-3.5983 0-30.585-5.9971-34.184-5.9971-3.5983 0-32.984-4.7977-35.383-4.7977h-23.389l-13.194-4.198z" fill="url(#r)"/>
     <path d="m19.79 375.89s3.5983-0.59971 7.7962 1.7991c4.198 2.3988 7.7962 6.5968 11.994 10.795 4.198 4.198 26.387 22.189 28.786 23.988s32.384 13.793 37.182 16.792 29.386 8.396 33.584 8.9957 25.788 2.3988 32.984 4.198 29.192 3.6383 40.181 5.3974 25.788 4.7977 25.788 4.7977-11.311-12.824-18.591-19.191c-7.2798-6.3663-14.727-12.411-25.188-18.591s-35.383-16.792-37.782-17.392-27.587-9.5954-31.185-9.5954c-3.5983 0-30.585-5.9971-34.184-5.9971-3.5983 0-32.984-4.7977-35.383-4.7977h-23.389l-13.194-4.198z" fill="url(#s)"/>
     <path d="m19.909 374.07c1.2868 0.65786 10.357 2.5261 13.492 4.7973 3.1353 2.2712 71.94 20.453 74.216 21.044 2.2759 0.59069 67.259 21.019 67.259 21.019s33.255 14.137 35.564 15.222c2.3095 1.0852 24.319 14.247 24.319 14.247" fill="none" stroke="#4a4a12" stroke-dashoffset="13.12" stroke-linecap="square" stroke-width="1.6"/>
     <path d="m42.898 379.71c6.4964 0.55247 17.41 0.30809 23.479 1.8832 6.069 1.5752 30.801 3.6217 35.089 4.5726 4.2877 0.95089 29.188 5.4702 31.728 6.2914s24.675 8.5094 27.743 9.7915c3.0681 1.2821 23.853 11.049 25.371 11.443s15.705 8.1249 18.61 10.66c2.9048 2.5353 20.53 16.989 20.53 16.989s-38.205-17.527-41.306-19.304c-3.1017-1.7767-34.273-10.839-37.341-12.121-3.0681-1.2821-37.144-12.879-41.167-13.6-4.0236-0.7204-27.738-6.0656-29.817-7.4149s-16.229-4.8598-16.229-4.8598z" fill="#bcd35f" opacity=".2"/>
    </g>
    <g transform="matrix(.82735 .040329 .040329 -.82735 88.857 527.99)">
     <path d="m19.79 375.89s3.5983-0.59971 7.7962 1.7991c4.198 2.3988 7.7962 6.5968 11.994 10.795 4.198 4.198 26.387 22.189 28.786 23.988s32.384 13.793 37.182 16.792 29.386 8.396 33.584 8.9957 25.788 2.3988 32.984 4.198 29.192 3.6383 40.181 5.3974 25.788 4.7977 25.788 4.7977-11.311-12.824-18.591-19.191c-7.2798-6.3663-14.727-12.411-25.188-18.591s-35.383-16.792-37.782-17.392-27.587-9.5954-31.185-9.5954c-3.5983 0-30.585-5.9971-34.184-5.9971-3.5983 0-32.984-4.7977-35.383-4.7977h-23.389l-13.194-4.198z" fill="#81922a"/>
     <path d="m19.79 375.89s3.5983-0.59971 7.7962 1.7991c4.198 2.3988 7.7962 6.5968 11.994 10.795 4.198 4.198 26.387 22.189 28.786 23.988s32.384 13.793 37.182 16.792 29.386 8.396 33.584 8.9957 25.788 2.3988 32.984 4.198 29.192 3.6383 40.181 5.3974 25.788 4.7977 25.788 4.7977-11.311-12.824-18.591-19.191c-7.2798-6.3663-14.727-12.411-25.188-18.591s-35.383-16.792-37.782-17.392-27.587-9.5954-31.185-9.5954c-3.5983 0-30.585-5.9971-34.184-5.9971-3.5983 0-32.984-4.7977-35.383-4.7977h-23.389l-13.194-4.198z" fill="url(#q)"/>
     <path d="m19.79 375.89s3.5983-0.59971 7.7962 1.7991c4.198 2.3988 7.7962 6.5968 11.994 10.795 4.198 4.198 26.387 22.189 28.786 23.988s32.384 13.793 37.182 16.792 29.386 8.396 33.584 8.9957 25.788 2.3988 32.984 4.198 29.192 3.6383 40.181 5.3974 25.788 4.7977 25.788 4.7977-11.311-12.824-18.591-19.191c-7.2798-6.3663-14.727-12.411-25.188-18.591s-35.383-16.792-37.782-17.392-27.587-9.5954-31.185-9.5954c-3.5983 0-30.585-5.9971-34.184-5.9971-3.5983 0-32.984-4.7977-35.383-4.7977h-23.389l-13.194-4.198z" fill="url(#r)"/>
     <path d="m19.79 375.89s3.5983-0.59971 7.7962 1.7991c4.198 2.3988 7.7962 6.5968 11.994 10.795 4.198 4.198 26.387 22.189 28.786 23.988s32.384 13.793 37.182 16.792 29.386 8.396 33.584 8.9957 25.788 2.3988 32.984 4.198 29.192 3.6383 40.181 5.3974 25.788 4.7977 25.788 4.7977-11.311-12.824-18.591-19.191c-7.2798-6.3663-14.727-12.411-25.188-18.591s-35.383-16.792-37.782-17.392-27.587-9.5954-31.185-9.5954c-3.5983 0-30.585-5.9971-34.184-5.9971-3.5983 0-32.984-4.7977-35.383-4.7977h-23.389l-13.194-4.198z" fill="url(#s)"/>
     <path d="m19.909 374.07c1.2868 0.65786 10.357 2.5261 13.492 4.7973 3.1353 2.2712 71.94 20.453 74.216 21.044 2.2759 0.59069 67.259 21.019 67.259 21.019s33.255 14.137 35.564 15.222c2.3095 1.0852 24.319 14.247 24.319 14.247" fill="none" stroke="#4a4a12" stroke-dashoffset="13.12" stroke-linecap="square" stroke-width="1.6"/>
     <path d="m42.898 379.71c6.4964 0.55247 17.41 0.30809 23.479 1.8832 6.069 1.5752 30.801 3.6217 35.089 4.5726 4.2877 0.95089 29.188 5.4702 31.728 6.2914s24.675 8.5094 27.743 9.7915c3.0681 1.2821 23.853 11.049 25.371 11.443s15.705 8.1249 18.61 10.66c2.9048 2.5353 20.53 16.989 20.53 16.989s-38.205-17.527-41.306-19.304c-3.1017-1.7767-34.273-10.839-37.341-12.121-3.0681-1.2821-37.144-12.879-41.167-13.6-4.0236-0.7204-27.738-6.0656-29.817-7.4149s-16.229-4.8598-16.229-4.8598z" fill="#bcd35f" opacity=".2"/>
    </g>
    <g transform="matrix(.77365 .011462 .011462 -.77365 168.26 583.27)">
     <path d="m19.79 375.89s3.5983-0.59971 7.7962 1.7991c4.198 2.3988 7.7962 6.5968 11.994 10.795 4.198 4.198 26.387 22.189 28.786 23.988s32.384 13.793 37.182 16.792 29.386 8.396 33.584 8.9957 25.788 2.3988 32.984 4.198 29.192 3.6383 40.181 5.3974 25.788 4.7977 25.788 4.7977-11.311-12.824-18.591-19.191c-7.2798-6.3663-14.727-12.411-25.188-18.591s-35.383-16.792-37.782-17.392-27.587-9.5954-31.185-9.5954c-3.5983 0-30.585-5.9971-34.184-5.9971-3.5983 0-32.984-4.7977-35.383-4.7977h-23.389l-13.194-4.198z" fill="#81922a"/>
     <path d="m19.79 375.89s3.5983-0.59971 7.7962 1.7991c4.198 2.3988 7.7962 6.5968 11.994 10.795 4.198 4.198 26.387 22.189 28.786 23.988s32.384 13.793 37.182 16.792 29.386 8.396 33.584 8.9957 25.788 2.3988 32.984 4.198 29.192 3.6383 40.181 5.3974 25.788 4.7977 25.788 4.7977-11.311-12.824-18.591-19.191c-7.2798-6.3663-14.727-12.411-25.188-18.591s-35.383-16.792-37.782-17.392-27.587-9.5954-31.185-9.5954c-3.5983 0-30.585-5.9971-34.184-5.9971-3.5983 0-32.984-4.7977-35.383-4.7977h-23.389l-13.194-4.198z" fill="url(#q)"/>
     <path d="m19.79 375.89s3.5983-0.59971 7.7962 1.7991c4.198 2.3988 7.7962 6.5968 11.994 10.795 4.198 4.198 26.387 22.189 28.786 23.988s32.384 13.793 37.182 16.792 29.386 8.396 33.584 8.9957 25.788 2.3988 32.984 4.198 29.192 3.6383 40.181 5.3974 25.788 4.7977 25.788 4.7977-11.311-12.824-18.591-19.191c-7.2798-6.3663-14.727-12.411-25.188-18.591s-35.383-16.792-37.782-17.392-27.587-9.5954-31.185-9.5954c-3.5983 0-30.585-5.9971-34.184-5.9971-3.5983 0-32.984-4.7977-35.383-4.7977h-23.389l-13.194-4.198z" fill="url(#r)"/>
     <path d="m19.79 375.89s3.5983-0.59971 7.7962 1.7991c4.198 2.3988 7.7962 6.5968 11.994 10.795 4.198 4.198 26.387 22.189 28.786 23.988s32.384 13.793 37.182 16.792 29.386 8.396 33.584 8.9957 25.788 2.3988 32.984 4.198 29.192 3.6383 40.181 5.3974 25.788 4.7977 25.788 4.7977-11.311-12.824-18.591-19.191c-7.2798-6.3663-14.727-12.411-25.188-18.591s-35.383-16.792-37.782-17.392-27.587-9.5954-31.185-9.5954c-3.5983 0-30.585-5.9971-34.184-5.9971-3.5983 0-32.984-4.7977-35.383-4.7977h-23.389l-13.194-4.198z" fill="url(#s)"/>
     <path d="m19.909 374.07c1.2868 0.65786 10.357 2.5261 13.492 4.7973 3.1353 2.2712 71.94 20.453 74.216 21.044 2.2759 0.59069 67.259 21.019 67.259 21.019s33.255 14.137 35.564 15.222c2.3095 1.0852 24.319 14.247 24.319 14.247" fill="none" stroke="#4a4a12" stroke-dashoffset="13.12" stroke-linecap="square" stroke-width="1.6"/>
     <path d="m42.898 379.71c6.4964 0.55247 17.41 0.30809 23.479 1.8832 6.069 1.5752 30.801 3.6217 35.089 4.5726 4.2877 0.95089 29.188 5.4702 31.728 6.2914s24.675 8.5094 27.743 9.7915c3.0681 1.2821 23.853 11.049 25.371 11.443s15.705 8.1249 18.61 10.66c2.9048 2.5353 20.53 16.989 20.53 16.989s-38.205-17.527-41.306-19.304c-3.1017-1.7767-34.273-10.839-37.341-12.121-3.0681-1.2821-37.144-12.879-41.167-13.6-4.0236-0.7204-27.738-6.0656-29.817-7.4149s-16.229-4.8598-16.229-4.8598z" fill="#bcd35f" opacity=".2"/>
    </g>
    <g transform="matrix(.5394 .0079918 .0079918 -.5394 223.49 537.29)">
     <path d="m19.79 375.89s3.5983-0.59971 7.7962 1.7991c4.198 2.3988 7.7962 6.5968 11.994 10.795 4.198 4.198 26.387 22.189 28.786 23.988s32.384 13.793 37.182 16.792 29.386 8.396 33.584 8.9957 25.788 2.3988 32.984 4.198 29.192 3.6383 40.181 5.3974 25.788 4.7977 25.788 4.7977-11.311-12.824-18.591-19.191c-7.2798-6.3663-14.727-12.411-25.188-18.591s-35.383-16.792-37.782-17.392-27.587-9.5954-31.185-9.5954c-3.5983 0-30.585-5.9971-34.184-5.9971-3.5983 0-32.984-4.7977-35.383-4.7977h-23.389l-13.194-4.198z" fill="#81922a"/>
     <path d="m19.79 375.89s3.5983-0.59971 7.7962 1.7991c4.198 2.3988 7.7962 6.5968 11.994 10.795 4.198 4.198 26.387 22.189 28.786 23.988s32.384 13.793 37.182 16.792 29.386 8.396 33.584 8.9957 25.788 2.3988 32.984 4.198 29.192 3.6383 40.181 5.3974 25.788 4.7977 25.788 4.7977-11.311-12.824-18.591-19.191c-7.2798-6.3663-14.727-12.411-25.188-18.591s-35.383-16.792-37.782-17.392-27.587-9.5954-31.185-9.5954c-3.5983 0-30.585-5.9971-34.184-5.9971-3.5983 0-32.984-4.7977-35.383-4.7977h-23.389l-13.194-4.198z" fill="url(#q)"/>
     <path d="m19.79 375.89s3.5983-0.59971 7.7962 1.7991c4.198 2.3988 7.7962 6.5968 11.994 10.795 4.198 4.198 26.387 22.189 28.786 23.988s32.384 13.793 37.182 16.792 29.386 8.396 33.584 8.9957 25.788 2.3988 32.984 4.198 29.192 3.6383 40.181 5.3974 25.788 4.7977 25.788 4.7977-11.311-12.824-18.591-19.191c-7.2798-6.3663-14.727-12.411-25.188-18.591s-35.383-16.792-37.782-17.392-27.587-9.5954-31.185-9.5954c-3.5983 0-30.585-5.9971-34.184-5.9971-3.5983 0-32.984-4.7977-35.383-4.7977h-23.389l-13.194-4.198z" fill="url(#r)"/>
     <path d="m19.79 375.89s3.5983-0.59971 7.7962 1.7991c4.198 2.3988 7.7962 6.5968 11.994 10.795 4.198 4.198 26.387 22.189 28.786 23.988s32.384 13.793 37.182 16.792 29.386 8.396 33.584 8.9957 25.788 2.3988 32.984 4.198 29.192 3.6383 40.181 5.3974 25.788 4.7977 25.788 4.7977-11.311-12.824-18.591-19.191c-7.2798-6.3663-14.727-12.411-25.188-18.591s-35.383-16.792-37.782-17.392-27.587-9.5954-31.185-9.5954c-3.5983 0-30.585-5.9971-34.184-5.9971-3.5983 0-32.984-4.7977-35.383-4.7977h-23.389l-13.194-4.198z" fill="url(#s)"/>
     <path d="m19.909 374.07c1.2868 0.65786 10.357 2.5261 13.492 4.7973 3.1353 2.2712 71.94 20.453 74.216 21.044 2.2759 0.59069 67.259 21.019 67.259 21.019s33.255 14.137 35.564 15.222c2.3095 1.0852 24.319 14.247 24.319 14.247" fill="none" stroke="#4a4a12" stroke-dashoffset="13.12" stroke-linecap="square" stroke-width="1.6"/>
     <path d="m42.898 379.71c6.4964 0.55247 17.41 0.30809 23.479 1.8832 6.069 1.5752 30.801 3.6217 35.089 4.5726 4.2877 0.95089 29.188 5.4702 31.728 6.2914s24.675 8.5094 27.743 9.7915c3.0681 1.2821 23.853 11.049 25.371 11.443s15.705 8.1249 18.61 10.66c2.9048 2.5353 20.53 16.989 20.53 16.989s-38.205-17.527-41.306-19.304c-3.1017-1.7767-34.273-10.839-37.341-12.121-3.0681-1.2821-37.144-12.879-41.167-13.6-4.0236-0.7204-27.738-6.0656-29.817-7.4149s-16.229-4.8598-16.229-4.8598z" fill="#bcd35f" opacity=".2"/>
    </g>
    <g transform="matrix(.41801 .16964 .16964 -.41801 204.23 517.79)">
     <path d="m19.79 375.89s3.5983-0.59971 7.7962 1.7991c4.198 2.3988 7.7962 6.5968 11.994 10.795 4.198 4.198 26.387 22.189 28.786 23.988s32.384 13.793 37.182 16.792 29.386 8.396 33.584 8.9957 25.788 2.3988 32.984 4.198 29.192 3.6383 40.181 5.3974 25.788 4.7977 25.788 4.7977-11.311-12.824-18.591-19.191c-7.2798-6.3663-14.727-12.411-25.188-18.591s-35.383-16.792-37.782-17.392-27.587-9.5954-31.185-9.5954c-3.5983 0-30.585-5.9971-34.184-5.9971-3.5983 0-32.984-4.7977-35.383-4.7977h-23.389l-13.194-4.198z" fill="#81922a"/>
     <path d="m19.79 375.89s3.5983-0.59971 7.7962 1.7991c4.198 2.3988 7.7962 6.5968 11.994 10.795 4.198 4.198 26.387 22.189 28.786 23.988s32.384 13.793 37.182 16.792 29.386 8.396 33.584 8.9957 25.788 2.3988 32.984 4.198 29.192 3.6383 40.181 5.3974 25.788 4.7977 25.788 4.7977-11.311-12.824-18.591-19.191c-7.2798-6.3663-14.727-12.411-25.188-18.591s-35.383-16.792-37.782-17.392-27.587-9.5954-31.185-9.5954c-3.5983 0-30.585-5.9971-34.184-5.9971-3.5983 0-32.984-4.7977-35.383-4.7977h-23.389l-13.194-4.198z" fill="url(#q)"/>
     <path d="m19.79 375.89s3.5983-0.59971 7.7962 1.7991c4.198 2.3988 7.7962 6.5968 11.994 10.795 4.198 4.198 26.387 22.189 28.786 23.988s32.384 13.793 37.182 16.792 29.386 8.396 33.584 8.9957 25.788 2.3988 32.984 4.198 29.192 3.6383 40.181 5.3974 25.788 4.7977 25.788 4.7977-11.311-12.824-18.591-19.191c-7.2798-6.3663-14.727-12.411-25.188-18.591s-35.383-16.792-37.782-17.392-27.587-9.5954-31.185-9.5954c-3.5983 0-30.585-5.9971-34.184-5.9971-3.5983 0-32.984-4.7977-35.383-4.7977h-23.389l-13.194-4.198z" fill="url(#r)"/>
     <path d="m19.79 375.89s3.5983-0.59971 7.7962 1.7991c4.198 2.3988 7.7962 6.5968 11.994 10.795 4.198 4.198 26.387 22.189 28.786 23.988s32.384 13.793 37.182 16.792 29.386 8.396 33.584 8.9957 25.788 2.3988 32.984 4.198 29.192 3.6383 40.181 5.3974 25.788 4.7977 25.788 4.7977-11.311-12.824-18.591-19.191c-7.2798-6.3663-14.727-12.411-25.188-18.591s-35.383-16.792-37.782-17.392-27.587-9.5954-31.185-9.5954c-3.5983 0-30.585-5.9971-34.184-5.9971-3.5983 0-32.984-4.7977-35.383-4.7977h-23.389l-13.194-4.198z" fill="url(#s)"/>
     <path d="m19.909 374.07c1.2868 0.65786 10.357 2.5261 13.492 4.7973 3.1353 2.2712 71.94 20.453 74.216 21.044 2.2759 0.59069 67.259 21.019 67.259 21.019s33.255 14.137 35.564 15.222c2.3095 1.0852 24.319 14.247 24.319 14.247" fill="none" stroke="#4a4a12" stroke-dashoffset="13.12" stroke-linecap="square" stroke-width="1.6"/>
     <path d="m42.898 379.71c6.4964 0.55247 17.41 0.30809 23.479 1.8832 6.069 1.5752 30.801 3.6217 35.089 4.5726 4.2877 0.95089 29.188 5.4702 31.728 6.2914s24.675 8.5094 27.743 9.7915c3.0681 1.2821 23.853 11.049 25.371 11.443s15.705 8.1249 18.61 10.66c2.9048 2.5353 20.53 16.989 20.53 16.989s-38.205-17.527-41.306-19.304c-3.1017-1.7767-34.273-10.839-37.341-12.121-3.0681-1.2821-37.144-12.879-41.167-13.6-4.0236-0.7204-27.738-6.0656-29.817-7.4149s-16.229-4.8598-16.229-4.8598z" fill="#bcd35f" opacity=".2"/>
    </g>
    <g transform="matrix(.039129 .44825 -.44825 .039129 442.43 342.27)">
     <path d="m19.79 375.89s3.5983-0.59971 7.7962 1.7991c4.198 2.3988 7.7962 6.5968 11.994 10.795 4.198 4.198 26.387 22.189 28.786 23.988s32.384 13.793 37.182 16.792 29.386 8.396 33.584 8.9957 25.788 2.3988 32.984 4.198 29.192 3.6383 40.181 5.3974 25.788 4.7977 25.788 4.7977-11.311-12.824-18.591-19.191c-7.2798-6.3663-14.727-12.411-25.188-18.591s-35.383-16.792-37.782-17.392-27.587-9.5954-31.185-9.5954c-3.5983 0-30.585-5.9971-34.184-5.9971-3.5983 0-32.984-4.7977-35.383-4.7977h-23.389l-13.194-4.198z" fill="#81922a"/>
     <path d="m19.79 375.89s3.5983-0.59971 7.7962 1.7991c4.198 2.3988 7.7962 6.5968 11.994 10.795 4.198 4.198 26.387 22.189 28.786 23.988s32.384 13.793 37.182 16.792 29.386 8.396 33.584 8.9957 25.788 2.3988 32.984 4.198 29.192 3.6383 40.181 5.3974 25.788 4.7977 25.788 4.7977-11.311-12.824-18.591-19.191c-7.2798-6.3663-14.727-12.411-25.188-18.591s-35.383-16.792-37.782-17.392-27.587-9.5954-31.185-9.5954c-3.5983 0-30.585-5.9971-34.184-5.9971-3.5983 0-32.984-4.7977-35.383-4.7977h-23.389l-13.194-4.198z" fill="url(#q)"/>
     <path d="m19.79 375.89s3.5983-0.59971 7.7962 1.7991c4.198 2.3988 7.7962 6.5968 11.994 10.795 4.198 4.198 26.387 22.189 28.786 23.988s32.384 13.793 37.182 16.792 29.386 8.396 33.584 8.9957 25.788 2.3988 32.984 4.198 29.192 3.6383 40.181 5.3974 25.788 4.7977 25.788 4.7977-11.311-12.824-18.591-19.191c-7.2798-6.3663-14.727-12.411-25.188-18.591s-35.383-16.792-37.782-17.392-27.587-9.5954-31.185-9.5954c-3.5983 0-30.585-5.9971-34.184-5.9971-3.5983 0-32.984-4.7977-35.383-4.7977h-23.389l-13.194-4.198z" fill="url(#r)"/>
     <path d="m19.79 375.89s3.5983-0.59971 7.7962 1.7991c4.198 2.3988 7.7962 6.5968 11.994 10.795 4.198 4.198 26.387 22.189 28.786 23.988s32.384 13.793 37.182 16.792 29.386 8.396 33.584 8.9957 25.788 2.3988 32.984 4.198 29.192 3.6383 40.181 5.3974 25.788 4.7977 25.788 4.7977-11.311-12.824-18.591-19.191c-7.2798-6.3663-14.727-12.411-25.188-18.591s-35.383-16.792-37.782-17.392-27.587-9.5954-31.185-9.5954c-3.5983 0-30.585-5.9971-34.184-5.9971-3.5983 0-32.984-4.7977-35.383-4.7977h-23.389l-13.194-4.198z" fill="url(#s)"/>
     <path d="m19.909 374.07c1.2868 0.65786 10.357 2.5261 13.492 4.7973 3.1353 2.2712 71.94 20.453 74.216 21.044 2.2759 0.59069 67.259 21.019 67.259 21.019s33.255 14.137 35.564 15.222c2.3095 1.0852 24.319 14.247 24.319 14.247" fill="none" stroke="#4a4a12" stroke-dashoffset="13.12" stroke-linecap="square" stroke-width="1.6"/>
     <path d="m42.898 379.71c6.4964 0.55247 17.41 0.30809 23.479 1.8832 6.069 1.5752 30.801 3.6217 35.089 4.5726 4.2877 0.95089 29.188 5.4702 31.728 6.2914s24.675 8.5094 27.743 9.7915c3.0681 1.2821 23.853 11.049 25.371 11.443s15.705 8.1249 18.61 10.66c2.9048 2.5353 20.53 16.989 20.53 16.989s-38.205-17.527-41.306-19.304c-3.1017-1.7767-34.273-10.839-37.341-12.121-3.0681-1.2821-37.144-12.879-41.167-13.6-4.0236-0.7204-27.738-6.0656-29.817-7.4149s-16.229-4.8598-16.229-4.8598z" fill="#bcd35f" opacity=".2"/>
    </g>
   </g>
   <ellipse transform="matrix(.99493 -.10058 .10542 .99443 0 0)" cx="243.64" cy="819.13" rx="61.443" ry="22.512" fill="#445016" opacity=".7092"/>
   <ellipse transform="matrix(.46586 .88486 -.87165 .49013 0 0)" cx="567.34" cy="-105.65" rx="33.788" ry="10.753" fill="#333" opacity=".3"/>
   <ellipse transform="matrix(.97445 -.2246 .2246 .97445 0 0)" cx="274.97" cy="721.54" rx="32.216" ry="12.081" fill="#333" opacity=".3"/>
   <path d="m154.5 678.03c-4.4809-2.614-11.347-2.8987-15.048-1.4823-5.031 1.9251-7.8888 8.702-9.623 13.556-6.4468 18.043-6.229 41.441 5.554 55.799 0.56981 0.69432 0.78221 3.2514 1.6478 4.3062 2.4902 3.0344 5.3387 6.2664 8.835 8.4674 12.572 7.9144 22.157-0.57346 23.303-12.208 0.61209-6.2138 0.17248-14.789-0.71475-20.79-1.1699-7.9127-1.7189-17.394-4.4819-24.614-1.4441-3.7738-2.1828-8.2847-3.6427-12.1-1.4209-3.7134-4.0672-6.3286-5.8294-10.934z" fill="#222b00" opacity=".3"/>
   <g transform="matrix(1.4788 -.52773 .52773 1.4788 -660.59 58.136)">
    <g transform="matrix(.36128 -.93246 .93246 .36128 -111.89 775.74)">
     <ellipse cx="391.4" cy="371.57" rx="35.528" ry="28.031" fill="#666"/>
     <ellipse cx="391.4" cy="371.57" rx="29.009" ry="22.888" filter="url(#m)"/>
     <path d="m399.24 348.32a28.212 17.668 6.5366 0 0 -32.889 11.801 28.212 17.668 6.5366 0 0 -0.40819 4.7662 28.212 17.668 6.5366 0 1 30.481 -7.4891 28.212 17.668 6.5366 0 1 22.714 17.54 28.212 17.668 6.5366 0 0 2.4086 -4.3131 28.212 17.668 6.5366 0 0 -22.306 -22.304z" fill="#ccc" opacity=".4"/>
     <ellipse cx="403.8" cy="374.06" rx="9.1388" ry="8.8003" fill="#ccc" opacity=".2"/>
    </g>
    <ellipse transform="matrix(.36128 -.93246 .93246 .36128 -97.425 742.15)" cx="322.41" cy="371.24" rx="3.0656" ry="3.5437" fill="#666" filter="url(#n)"/>
    <ellipse transform="matrix(.36128 -.93246 .93246 .36128 0 0)" cx="-404.95" cy="548.52" rx="2.4738" ry="2.9986" fill="url(#y)"/>
    <path d="m346.41 632.05s-6.1236 2.5555-4.9822-0.39033c1.1414-2.9459 22.613-56.377 22.613-56.377s1.003-0.52868 1.5013-0.48965c0.49822 0.039 1.488 0.72386 1.488 0.72386z" fill="#676c53"/>
    <path d="m346.41 632.05s-6.1236 2.5555-4.9822-0.39033c1.1414-2.9459 22.613-56.377 22.613-56.377s1.003-0.52868 1.5013-0.48965c0.49822 0.039 1.488 0.72386 1.488 0.72386z" fill="url(#z)"/>
    <circle id="a" transform="matrix(.90434 .42682 -.42682 .90434 0 0)" cx="613.25" cy="136.72" r="2.2536" fill="#333" opacity=".3"/>
    <use transform="matrix(1.0486 .082196 -.082196 1.0486 -67.95 13.525)" width="100%" height="100%" fill="#cccccc" xlink:href="#a"/>
    <use transform="matrix(1.1677 .15651 -.15651 1.1677 -85.325 -82.626)" width="100%" height="100%" fill="#333333" xlink:href="#a"/>
    <use transform="matrix(1.0223 .38212 -.38212 1.0223 71.663 -78.684)" width="100%" height="100%" fill="#333333" xlink:href="#a"/>
    <use transform="matrix(.094633 -1.1035 1.1035 .094633 -126.44 957.76)" width="100%" height="100%" fill="#333333" xlink:href="#a"/>
    <use transform="matrix(.48477 1.0731 -1.0731 .48477 677.38 -304.61)" width="100%" height="100%" fill="#333333" xlink:href="#a"/>
    <use id="v" transform="matrix(.39901 -.94126 .94126 .39901 -46.62 699.84)" width="100%" height="100%" fill="#333333" xlink:href="#a"/>
    <use transform="matrix(.60948 -.85787 .85787 .60948 -75.761 566.21)" width="100%" height="100%" fill="#333333" xlink:href="#a"/>
    <use transform="matrix(.68279 -.662 .662 .68279 8.2354 657.85)" width="100%" height="100%" fill="#333333" xlink:href="#a"/>
    <use transform="matrix(.31865 -1.0396 1.0396 .31865 78.322 919.48)" width="100%" height="100%" fill="#333333" xlink:href="#a"/>
    <use transform="matrix(.96861 .034326 -.034326 .96861 45.531 244.62)" width="100%" height="100%" fill="#333333" xlink:href="#a"/>
    <use transform="matrix(.80765 -.28412 .28412 .80765 64.865 438.79)" width="100%" height="100%" fill="#333333" xlink:href="#a"/>
    <use transform="matrix(-.031334 .83541 -.83541 -.031334 798.38 229.63)" width="100%" height="100%" fill="#333333" xlink:href="#a"/>
    <use transform="matrix(1.1297 -.30907 .30907 1.1297 -347.74 244.73)" width="100%" height="100%" fill="#333333" xlink:href="#a"/>
    <use transform="matrix(.94746 -.12865 .12865 .94746 -5.3505 296.41)" width="100%" height="100%" fill="#333333" xlink:href="#a"/>
    <use transform="matrix(.88734 -.23124 .23124 .88734 -170.91 265.27)" width="100%" height="100%" fill="#333333" xlink:href="#a"/>
    <use transform="matrix(.11978 -.89359 .89359 .11978 189.26 913.57)" width="100%" height="100%" fill="#333333" xlink:href="#a"/>
    <use transform="matrix(.91172 .40418 -.40418 .91172 172.94 102.89)" width="100%" height="100%" fill="#333333" xlink:href="#a"/>
    <use transform="matrix(1.0124 .21931 -.21931 1.0124 -72.972 -16.155)" width="100%" height="100%" fill="#333333" xlink:href="#a"/>
    <use transform="matrix(.23026 -.86386 .86386 .23026 161.48 698.29)" width="100%" height="100%" xlink:href="#v"/>
    <use transform="matrix(.84071 -.26205 .26205 .84071 99.261 411.39)" width="100%" height="100%" xlink:href="#v"/>
    <use transform="matrix(.90039 -.6235 .6235 .90039 -68.024 478.96)" width="100%" height="100%" xlink:href="#v"/>
    <use transform="matrix(.42989 1.0727 -1.0727 .42989 857.71 -303.77)" width="100%" height="100%" xlink:href="#v"/>
    <use transform="matrix(.46304 -.91094 .91094 .46304 -253.95 863.33)" width="100%" height="100%" xlink:href="#v"/>
   </g>
   <g transform="matrix(1.0213 -.67373 .67373 1.0213 -191.94 455.61)">
    <g transform="translate(-36.555 -1.3539)">
     <ellipse cx="391.4" cy="371.57" rx="35.528" ry="28.031" fill="#666"/>
     <ellipse cx="391.4" cy="371.57" rx="29.009" ry="22.888" filter="url(#m)"/>
     <path d="m399.24 348.32a28.212 17.668 6.5366 0 0 -32.889 11.801 28.212 17.668 6.5366 0 0 -0.40819 4.7662 28.212 17.668 6.5366 0 1 30.481 -7.4891 28.212 17.668 6.5366 0 1 22.714 17.54 28.212 17.668 6.5366 0 0 2.4086 -4.3131 28.212 17.668 6.5366 0 0 -22.306 -22.304z" fill="#ccc" opacity=".4"/>
     <ellipse cx="403.8" cy="374.06" rx="9.1388" ry="8.8003" fill="#ccc" opacity=".2"/>
    </g>
    <ellipse cx="322.41" cy="371.24" rx="3.0656" ry="3.5437" fill="#666" filter="url(#n)"/>
    <ellipse cx="322.27" cy="371.24" rx="2.4738" ry="2.9986" fill="url(#t)"/>
    <path d="m263.01 374.08s-4.5952-4.7867-1.436-4.7867 60.739 0.71801 60.739 0.71801 0.85535 0.74429 0.99895 1.223-0.13735 1.6491-0.13735 1.6491z" fill="#676c53"/>
    <path d="m263.01 374.08s-4.5952-4.7867-1.436-4.7867 60.739 0.71801 60.739 0.71801 0.85535 0.74429 0.99895 1.223-0.13735 1.6491-0.13735 1.6491z" fill="url(#u)"/>
   </g>
   <g transform="matrix(-.10403 -1.3101 1.3101 -.10403 -142.07 1036.8)">
    <g transform="translate(-36.555 -1.3539)">
     <ellipse cx="391.4" cy="371.57" rx="35.528" ry="28.031" fill="#666"/>
     <ellipse cx="391.4" cy="371.57" rx="29.009" ry="22.888" filter="url(#m)"/>
     <path d="m399.24 348.32a28.212 17.668 6.5366 0 0 -32.889 11.801 28.212 17.668 6.5366 0 0 -0.40819 4.7662 28.212 17.668 6.5366 0 1 30.481 -7.4891 28.212 17.668 6.5366 0 1 22.714 17.54 28.212 17.668 6.5366 0 0 2.4086 -4.3131 28.212 17.668 6.5366 0 0 -22.306 -22.304z" fill="#ccc" opacity=".4"/>
     <ellipse cx="403.8" cy="374.06" rx="9.1388" ry="8.8003" fill="#ccc" opacity=".2"/>
    </g>
    <ellipse cx="322.41" cy="371.24" rx="3.0656" ry="3.5437" fill="#666" filter="url(#n)"/>
    <ellipse cx="322.27" cy="371.24" rx="2.4738" ry="2.9986" fill="url(#t)"/>
    <path d="m263.01 374.08s-4.5952-4.7867-1.436-4.7867 60.739 0.71801 60.739 0.71801 0.85535 0.74429 0.99895 1.223-0.13735 1.6491-0.13735 1.6491z" fill="#676c53"/>
    <path d="m263.01 374.08s-4.5952-4.7867-1.436-4.7867 60.739 0.71801 60.739 0.71801 0.85535 0.74429 0.99895 1.223-0.13735 1.6491-0.13735 1.6491z" fill="url(#u)"/>
   </g>
   <path d="m108.17 876.18c2.779 2.7174 5.5685 5.4261 8.3682 8.1262 121.69-82.745 208.93-198.04 268.7-327.45 59.782-129.42 92.406-273.6 104.42-414.98-15.814 141.16-52.124 283.59-114.71 410.07-62.594 126.5-151.14 236.39-270.98 313.36 1.4111 3.6183 2.8098 7.2431 4.1958 10.874z" fill="#4a4a12"/>
   <g transform="matrix(-.21041 -1.2631 1.2631 -.21041 -15.218 911.95)">
    <g transform="translate(-36.555 -1.3539)">
     <ellipse cx="391.4" cy="371.57" rx="35.528" ry="28.031" fill="#666"/>
     <ellipse cx="391.4" cy="371.57" rx="29.009" ry="22.888" filter="url(#m)"/>
     <path d="m399.24 348.32a28.212 17.668 6.5366 0 0 -32.889 11.801 28.212 17.668 6.5366 0 0 -0.40819 4.7662 28.212 17.668 6.5366 0 1 30.481 -7.4891 28.212 17.668 6.5366 0 1 22.714 17.54 28.212 17.668 6.5366 0 0 2.4086 -4.3131 28.212 17.668 6.5366 0 0 -22.306 -22.304z" fill="#ccc" opacity=".4"/>
     <ellipse cx="403.8" cy="374.06" rx="9.1388" ry="8.8003" fill="#ccc" opacity=".2"/>
    </g>
    <ellipse cx="322.41" cy="371.24" rx="3.0656" ry="3.5437" fill="#666" filter="url(#n)"/>
    <ellipse cx="322.27" cy="371.24" rx="2.4738" ry="2.9986" fill="url(#t)"/>
    <path d="m263.01 374.08s-4.5952-4.7867-1.436-4.7867 60.739 0.71801 60.739 0.71801 0.85535 0.74429 0.99895 1.223-0.13735 1.6491-0.13735 1.6491z" fill="#676c53"/>
    <path d="m263.01 374.08s-4.5952-4.7867-1.436-4.7867 60.739 0.71801 60.739 0.71801 0.85535 0.74429 0.99895 1.223-0.13735 1.6491-0.13735 1.6491z" fill="url(#u)"/>
   </g>
   <path d="m108.17 876.18c2.779 2.7174 5.5685 5.4261 8.3682 8.1262 121.69-82.745 208.93-198.04 268.7-327.45 59.782-129.42 92.406-273.6 104.42-414.98-15.814 141.16-52.124 283.59-114.71 410.07-62.594 126.5-151.14 236.39-270.98 313.36 1.4111 3.6183 2.8098 7.2431 4.1958 10.874z" fill="url(#aa)"/>
   <g transform="matrix(.6496 -1.0368 1.0368 .6496 -368.72 839.82)">
    <g transform="translate(-36.555 -1.3539)">
     <ellipse cx="391.4" cy="371.57" rx="35.528" ry="28.031" fill="#666"/>
     <ellipse cx="391.4" cy="371.57" rx="29.009" ry="22.888" filter="url(#m)"/>
     <path d="m399.24 348.32a28.212 17.668 6.5366 0 0 -32.889 11.801 28.212 17.668 6.5366 0 0 -0.40819 4.7662 28.212 17.668 6.5366 0 1 30.481 -7.4891 28.212 17.668 6.5366 0 1 22.714 17.54 28.212 17.668 6.5366 0 0 2.4086 -4.3131 28.212 17.668 6.5366 0 0 -22.306 -22.304z" fill="#ccc" opacity=".4"/>
     <ellipse cx="403.8" cy="374.06" rx="9.1388" ry="8.8003" fill="#ccc" opacity=".2"/>
    </g>
    <ellipse cx="322.41" cy="371.24" rx="3.0656" ry="3.5437" fill="#666" filter="url(#n)"/>
    <ellipse cx="322.27" cy="371.24" rx="2.4738" ry="2.9986" fill="url(#t)"/>
    <path d="m263.01 374.08s-4.5952-4.7867-1.436-4.7867 60.739 0.71801 60.739 0.71801 0.85535 0.74429 0.99895 1.223-0.13735 1.6491-0.13735 1.6491z" fill="#676c53"/>
    <path d="m263.01 374.08s-4.5952-4.7867-1.436-4.7867 60.739 0.71801 60.739 0.71801 0.85535 0.74429 0.99895 1.223-0.13735 1.6491-0.13735 1.6491z" fill="url(#u)"/>
   </g>
   <g transform="matrix(1.441 .62339 -.62339 1.441 46.042 121.15)">
    <g transform="translate(-36.555 -1.3539)">
     <ellipse cx="391.4" cy="371.57" rx="35.528" ry="28.031" fill="#666"/>
     <ellipse cx="391.4" cy="371.57" rx="29.009" ry="22.888" filter="url(#m)"/>
     <path d="m399.24 348.32a28.212 17.668 6.5366 0 0 -32.889 11.801 28.212 17.668 6.5366 0 0 -0.40819 4.7662 28.212 17.668 6.5366 0 1 30.481 -7.4891 28.212 17.668 6.5366 0 1 22.714 17.54 28.212 17.668 6.5366 0 0 2.4086 -4.3131 28.212 17.668 6.5366 0 0 -22.306 -22.304z" fill="#ccc" opacity=".4"/>
     <ellipse cx="403.8" cy="374.06" rx="9.1388" ry="8.8003" fill="#ccc" opacity=".2"/>
    </g>
    <ellipse cx="322.41" cy="371.24" rx="3.0656" ry="3.5437" fill="#666" filter="url(#n)"/>
    <ellipse cx="322.27" cy="371.24" rx="2.4738" ry="2.9986" fill="url(#t)"/>
    <path d="m263.01 374.08s-4.5952-4.7867-1.436-4.7867 60.739 0.71801 60.739 0.71801 0.85535 0.74429 0.99895 1.223-0.13735 1.6491-0.13735 1.6491z" fill="#676c53"/>
    <path d="m263.01 374.08s-4.5952-4.7867-1.436-4.7867 60.739 0.71801 60.739 0.71801 0.85535 0.74429 0.99895 1.223-0.13735 1.6491-0.13735 1.6491z" fill="url(#u)"/>
   </g>
   <path d="m166.69 821.5s14.709-14.588 18.812-16.949c4.1035-2.3608 25.978-22.326 25.978-22.326s-7.7427 22.463-7.9585 24.654c-0.21581 2.1908-4.8049 9.4807-6.9956 9.2649s-4.3815-0.43158-4.3815-0.43158l-0.48554 4.9292s4.7134 2.6763 1.3733 2.9003c-3.3401 0.22401-17.132 5.5014-21.074 6.2192s-28.131 10.501-24.082 8.6879 18.812-16.949 18.812-16.949z" fill="#222b00" opacity=".41"/>
   <path d="m339.38 623.39c-2.6763 4.7134-20.439 27.849-21.858 31.027-1.4191 3.1782-19.676 25.712-14.091 25.156s15.705-7.854 19.036-13.609c3.3318-5.7548 8.4686-12.991 10.597-17.758 2.1286-4.7673 6.3154-24.816 6.3154-24.816z" fill="#222b00" opacity=".41"/>
   <g transform="matrix(.49345 -1.2478 1.2478 .49345 -269.36 796.4)">
    <g transform="translate(-36.555 -1.3539)">
     <ellipse cx="391.4" cy="371.57" rx="35.528" ry="28.031" fill="#666"/>
     <ellipse cx="391.4" cy="371.57" rx="29.009" ry="22.888" filter="url(#m)"/>
     <path d="m399.24 348.32a28.212 17.668 6.5366 0 0 -32.889 11.801 28.212 17.668 6.5366 0 0 -0.40819 4.7662 28.212 17.668 6.5366 0 1 30.481 -7.4891 28.212 17.668 6.5366 0 1 22.714 17.54 28.212 17.668 6.5366 0 0 2.4086 -4.3131 28.212 17.668 6.5366 0 0 -22.306 -22.304z" fill="#ccc" opacity=".4"/>
     <ellipse cx="403.8" cy="374.06" rx="9.1388" ry="8.8003" fill="#ccc" opacity=".2"/>
    </g>
    <ellipse cx="322.41" cy="371.24" rx="3.0656" ry="3.5437" fill="#666" filter="url(#n)"/>
    <ellipse cx="322.27" cy="371.24" rx="2.4738" ry="2.9986" fill="url(#t)"/>
    <path d="m263.01 374.08s-4.5952-4.7867-1.436-4.7867 60.739 0.71801 60.739 0.71801 0.85535 0.74429 0.99895 1.223-0.13735 1.6491-0.13735 1.6491z" fill="#676c53"/>
    <path d="m263.01 374.08s-4.5952-4.7867-1.436-4.7867 60.739 0.71801 60.739 0.71801 0.85535 0.74429 0.99895 1.223-0.13735 1.6491-0.13735 1.6491z" fill="url(#u)"/>
   </g>
   <path d="m293.76 826.72c-1.24-0.64351-2.4801-1.287-3.7201-1.9306" fill="#222b00" opacity=".3"/>
   <ellipse transform="matrix(.99589 -.090582 .11701 .99313 0 0)" cx="427.75" cy="666.96" rx="36.622" ry="12.1" fill="#333" opacity=".3"/>
   <ellipse transform="matrix(.97307 -.23052 .23052 .97307 0 0)" cx="354.32" cy="594.77" rx="32.216" ry="12.081" fill="#333" opacity=".3"/>
   <g transform="matrix(1.4633 -.60108 .60108 1.4633 -416.2 427.72)">
    <g transform="translate(-36.555 -1.3539)">
     <ellipse cx="391.4" cy="371.57" rx="35.528" ry="28.031" fill="#666"/>
     <ellipse cx="391.4" cy="371.57" rx="29.009" ry="22.888" filter="url(#m)"/>
     <path d="m399.24 348.32a28.212 17.668 6.5366 0 0 -32.889 11.801 28.212 17.668 6.5366 0 0 -0.40819 4.7662 28.212 17.668 6.5366 0 1 30.481 -7.4891 28.212 17.668 6.5366 0 1 22.714 17.54 28.212 17.668 6.5366 0 0 2.4086 -4.3131 28.212 17.668 6.5366 0 0 -22.306 -22.304z" fill="#ccc" opacity=".4"/>
     <ellipse cx="403.8" cy="374.06" rx="9.1388" ry="8.8003" fill="#ccc" opacity=".2"/>
    </g>
    <ellipse cx="322.41" cy="371.24" rx="3.0656" ry="3.5437" fill="#666" filter="url(#n)"/>
    <ellipse cx="322.27" cy="371.24" rx="2.4738" ry="2.9986" fill="url(#t)"/>
    <path d="m263.01 374.08s-4.5952-4.7867-1.436-4.7867 60.739 0.71801 60.739 0.71801 0.85535 0.74429 0.99895 1.223-0.13735 1.6491-0.13735 1.6491z" fill="#676c53"/>
    <path d="m263.01 374.08s-4.5952-4.7867-1.436-4.7867 60.739 0.71801 60.739 0.71801 0.85535 0.74429 0.99895 1.223-0.13735 1.6491-0.13735 1.6491z" fill="url(#u)"/>
   </g>
  </g>
 </g>
</svg>
