<?xml version='1.0' encoding='utf-8'?>
<svg xmlns="http://www.w3.org/2000/svg" xmlns:xlink="http://www.w3.org/1999/xlink" width="3e3px" height="3e3px" enable-background="new -615.0146484 -290.9384766 3000 3000" version="1.1" viewBox="-615.0146484 -290.9384766 3000 3000">
<path d="m975.55 1469.4c-12.551-19.523-132.49-330.52-132.49-330.52s-50.205-164.56-62.755-200.82c-12.552-36.259-15.341-85.069-15.341-126.91 0-41.838 15.341-149.22 16.735-186.87 1.3945-37.654-19.524-66.94-44.626-111.57-8.7681-15.586-21.456-23.675-36.205-27.856 10.786-8.9282 18.075-15.375 18.075-15.375l-8.3672-58.572 71.123-83.675s3.3936-23.722 4.1836-47.416c1.3945-41.837-9.7622-93.437-72.519-172.93-62.756-79.491-175.72-5.5776-200.82 12.552s-44.626 223.13-44.626 223.13l-52.994 32.075 78.562 101.34s1.9346 18.924 3.7183 20.456c-48.347 5.1343-70.981 0.48145-85.069 12.085-23.708 19.525-12.552 71.125-5.5791 92.042 6.9731 20.919 39.049 154.8 39.049 172.93s-4.1846 118.54-19.525 128.3c-15.341 9.7612-89.253 626.17-89.253 626.17s48.811 18.13 66.941 27.892c18.129 9.7627 175.72 83.675 175.72 83.675l29.286-66.939s27.892 8.3672 39.048 8.3672h121.33s65.546 22.313 85.07 18.13c19.523-4.1846 185.48-76.702 185.48-76.702s-51.6-33.47-64.15-52.994z" fill="#4C3D38"/>
<path d="m582.74 420.22c9.3506-16.311 72.518-27.889 72.518 1.8594 0 13.567 0.31885 37.194 18.592 50.206 29.861 21.262 52.738 8.645 113.43 16.734 111.57 14.875 275.2 57.644 275.2 57.644s100.41 0 156.19 11.156 316.11 40.909 316.11 40.909l44.627-22.313s-7.4355-52.065 14.877-63.223c22.313-11.156 48.342-22.312 48.342-22.312l33.471 18.595s7.4355 26.032 22.312 26.032 70.66 0 70.66 0 7.4365 48.345-14.877 48.345c-22.312 0-40.906 14.877-40.906 14.877s26.035-3.7207 22.313 26.031c-3.7197 29.752-37.19 33.47-37.19 33.47s29.755 3.7207 29.755 29.752c0 26.031-22.313 33.469-37.19 33.469s-55.783-26.033-55.783-26.033-7.4355 11.156-22.312 11.156c-14.879 0-52.063-37.188-52.063-37.188s-185.95 26.032-208.26 22.314c-22.312-3.7178-137.6-27.892-174.79-39.049-37.185-11.157-160.44-2.5767-213.83-5.5776-42.485-2.3887-128.3-18.596-169.21-18.596-40.909 0-31.61 40.909-33.471 72.519-1.0894 18.513-5.5786 87.393-24.173 120.86-36.616 65.905-0.70557 155.61-18.595 176.65-39.822 46.833-197.93 40.078-228.71 9.2959-40.909-40.909-7.4385-137.59-11.157-185.94-3.7178-48.348-40.906-39.051-48.345-159.91-2.5547-41.497-37.188-29.749-37.188-29.749s-29.751 130.16-63.222 171.07c-33.469 40.908-40.905 100.41-81.814 189.66-40.909 89.253-100.41 215.69-100.41 215.69s0 26.033 14.875 37.191c14.875 11.156 29.752 44.625 29.752 44.625s37.19 14.877 0 26.035l-37.191 11.156-7.436-48.348s33.47 52.062 3.7178 89.254c-29.751 37.19-22.31 40.91-59.501 26.033s-3.7207-37.189-3.7207-37.189 3.7207 39.048-9.2964 39.048c-13.017 0-18.595-42.77-18.595-42.77s3.7178 29.749-5.5786 29.749c-9.2959 0-39.048-68.797-39.048-68.797s11.157-159.91 33.47-165.49c22.313-5.5781 46.484-85.537 83.675-148.76 37.19-63.219 40.911-94.829 59.504-130.16 18.592-35.329 59.498-126.44 85.532-174.79 26.035-48.345 85.536-184.09 102.27-191.52 16.734-7.436 91.552-26.527 111.57-22.313 35.33 7.438 55.783-3.021 68.799-20.454 7.7583-10.388 14.9-27.978 22.314-40.908z" fill="#CF9E76"/>
<path d="m612.49 438.82c24.324 1.5527 39.512-2.7891 79.954-50.205 15.412-18.07 34.492-43.346 39.048-69.729 7.3545-42.571 11.348-97.306-5.5781-125.51-27.892-46.487-85.533-83.672-115.28-81.814-29.752 1.8574-112.99 69.987-117.15 111.57-3.7202 37.188 13.018 85.533 13.018 85.533s1.8574 31.609 14.874 50.204c13.018 18.595 30.681 39.049 45.556 52.065 14.875 13.018 23.708 26.497 45.558 27.892z" fill="#CF9E76"/>
<path d="m472.1 924.13c-5.5791 26.498-21.382 65.083-47.417 256.6-26.033 191.52-42.766 256.6-52.062 336.56-3.7593 32.337-26.035 104.13-26.035 104.13s-13.014 42.77-26.031 98.553-35.33 154.33-35.33 154.33-37.188 327.27-37.188 342.14c0 14.872-22.316 239.86-35.33 260.32-13.015 20.456-143.18 83.675-143.18 83.675s-33.473 14.883-18.596 24.178c14.878 9.293 115.29 9.293 158.05 1.8574 42.766-7.4365 89.255-29.749 91.113-46.485 1.8574-16.734 7.436-167.35 29.749-228.71 22.314-61.36 96.692-293.79 91.113-349.58-5.5776-55.783-20.455-130.16-1.8599-159.91 18.595-29.75 46.486-159.91 74.378-230.57 27.892-70.661 78.097-286.35 78.097-295.65 0-9.2988 7.439-14.877 14.875-18.592 20.03-10.008 85.532 223.13 89.253 282.63 3.7212 59.504 27.892 111.57 27.892 111.57s14.878 31.612 9.2988 68.804c-5.5776 37.189 29.75 262.18 29.75 262.18s31.612 264.03 57.643 321.68c26.032 57.647 44.629 161.77 40.909 178.51-3.7207 16.734-18.592 42.769-11.156 59.503 7.4355 16.736 40.905 39.044 68.797 40.906 27.892 1.8643 137.6 3.7266 148.76-9.293 11.156-13.021-20.449-27.897-46.483-46.49-26.034-18.592-70.666-79.948-79.96-115.28s-26.922-349.04-33.47-399.78c-7.4365-57.642-20.456-247.3-33.47-280.77-13.018-33.47-33.468-74.376-40.906-89.253s14.872-139.46-14.877-293.79c-29.75-154.33-37.188-249.16-48.345-290.07-11.156-40.909-29.752-117.15-31.146-131.09-0.92627-9.2505-246.84-2.7896-246.84-2.7896z" fill="#CF9E76"/>
<path d="m426.55 1035.7s110.43 43.26 175.72 73.447c86.464 39.979 212.91 108.78 212.91 108.78l17.664 77.168s-32.541 2.7891-65.079-13.015c-30.749-14.932-310.04-144.83-330.05-153.41-26.031-11.156-19.523-29.75-19.523-29.75l8.3672-63.222z" fill="#B07E09"/>
<path d="m445.14 989.22l304.95 7.4355s37.921 148.87 53.922 301.23c13.497 128.51 27.892 251.02 31.612 323.54 2.6694 52.04 44.626 152.48 44.626 200.83 0 48.347 52.062 580.15 52.062 580.15s-38.596 45.567-76.233 33.469c-52.068-16.734-74.858-125.83-107.85-291.94-14.417-72.589-17.314-182.83-26.031-254.74-16.155-133.3-22.314-207.95-22.314-211.98 0-11.156-68.268-295.81-78.096-320.76-12.085-30.681-22.313-89.253-34.401-88.321-17.091 1.3184-27.251 107.69-51.134 191.53-25.943 91.073-55.097 176.54-59.501 191.52-9.2959 31.612-61.361 178.51-61.361 178.51s22.315 171.07-3.7183 234.29c-26.034 63.22-89.253 319.82-89.253 319.82s-107.85 7.4365-115.29-14.877c-3.6738-11.021 13.704-96.542 29.752-202.68 16.444-108.73 31.61-238 31.61-238l107.85-516.93 68.8-422.09z" fill="#5A3B00"/>
<path d="m430.26 1002.2c3.7207 14.874 27.895 16.737 53.926 18.595 26.031 1.8574 81.812-1.8608 102.27-1.8608 20.456 0 57.643-7.4385 79.957 0 22.313 7.4395 63.222 0 72.519 0 9.2954 0 24.173 1.8608 24.173-11.156s-14.875-161.77-11.157-172.93c3.7178-11.158 24.171-143.18 26.032-163.63 1.8599-20.453 3.7207-35.328 24.174-31.609 20.453 3.7178 46.484 16.737 46.484 1.8594 0-14.877 9.2993-119 9.2993-128.3v-9.2979l5.5776-14.875s-115.29-14.875-132.02-20.452c-16.734-5.5786-74.376-24.174-74.376-24.174s9.8438 46.487-40.909 46.487c-50.205 0-42.766-44.627-48.344-44.627-5.5786 0-65.083 14.875-79.957 20.453-14.875 5.5791-104.13 26.031-104.13 26.031l-24.173 26.034s-37.188 55.783-27.892 85.532c9.2954 29.75 52.065 94.832 52.065 94.832s13.017-68.798 22.313-48.345c9.2969 20.453 20.453 61.361 20.453 61.361s16.738 68.8 24.174 124.58c7.4355 55.783-20.456 165.49-20.456 165.49z" fill="#333"/>
<path d="m718.94 1274.2c0-50.205-4.1836-104.59 0-117.14s19.524-13.946 40.442-13.946c20.919 0 66.94 4.1836 85.07 27.892s44.626 86.464 44.626 121.33 1.1387 108.01-11.156 121.33c-16.735 18.13-97.621 16.735-112.96 8.3682-15.34-8.3682-41.837-36.26-44.627-57.178-2.7896-20.92-1.394-90.648-1.394-90.648z" fill="#B07E09"/>
<path d="m433.05 1026.4c4.6489 0 7.8281 1.5713 21.869 7.1743 35.818 14.294 100.44 37.147 147.34 58.833 86.464 39.98 212.91 108.78 212.91 108.78l14.878 89.255s-86.467-43.699-119-59.504c-30.75-14.934-195.69-89.974-215.7-98.549-26.032-11.157-78.094-33.47-78.094-33.47s7.4355-72.518 15.804-72.518z" fill="#B07E09"/>
	<path d="m597.61 396.05c4.0469 1.186 7.8433 2.6133 11.601 3.9082 1.875 0.64307 3.7305 1.269 5.5527 1.7705 1.8022 0.49512 3.644 0.90234 5.1108 0.88623 0.37598-0.0014648 0.61621-0.016602 1.0972-0.090332 0.38037-0.056152 0.83301-0.14941 1.2637-0.24707 0.88135-0.18066 1.7856-0.44238 2.7026-0.70996 1.8379-0.5376 3.7031-1.1836 5.5933-1.8203 3.7852-1.2861 7.6177-2.6436 11.706-3.6973-2.9229 3.0654-6.2759 5.5366-9.8652 7.6787-1.8013 1.0669-3.6812 2.0166-5.6787 2.8306-2.0376 0.77393-4.0376 1.5283-6.7856 1.6323-2.6128-0.03418-4.7583-0.68994-6.8086-1.4541-2.0356-0.78613-3.9321-1.7441-5.7407-2.8208-3.5981-2.1724-6.917-4.7168-9.748-7.8667z"/>
<path d="m638.52 290.06s22.313-35.329 44.626-27.892c22.313 7.4395 27.892 26.035 27.892 26.035s-14.878 20.456-29.753 22.313c-14.874 1.8584-42.766-20.456-42.766-20.456z" fill="none"/>
<path d="m600.84 291.15s-23.152-36.656-46.302-28.94c-23.152 7.7158-28.94 27.012-28.94 27.012s15.435 21.224 30.868 23.152c15.434 1.9258 44.374-21.224 44.374-21.224z" fill="none"/>
	<path d="m600.4 349.57c2.3325 0.23535 4.5464 1.2412 6.5078 2.5376 1.9492 1.3374 3.6553 3.0239 5.0674 4.9287 1.3931 1.9219 2.4287 4.0405 3.7822 5.8584 0.67676 0.90088 1.4536 1.7148 2.3877 2.2402 0.91064 0.5293 2.0493 0.7373 3.0581 0.64844 0.98779-0.12598 1.9248-0.78809 2.7388-1.5381 0.8208-0.76172 1.5552-1.6465 2.2603-2.5557 1.4297-1.8135 2.6421-3.8076 4.2788-5.5693 1.7036-1.6514 3.5005-3.1499 5.438-4.4834 0.97314-0.65625 1.9863-1.2539 3.0352-1.7783 1.0479-0.51855 2.1362-0.98682 3.2832-1.2173-2.2134 0.73779-4.1807 2.0225-6.0205 3.4116-1.8457 1.3848-3.5718 2.9609-5.1484 4.6143-1.4824 1.7085-2.7207 3.707-4.1401 5.5767-0.71045 0.93799-1.4565 1.8638-2.334 2.6987-0.87451 0.81152-1.9072 1.623-3.2593 1.8281-1.3052 0.11865-2.5596-0.16309-3.667-0.79883-1.0972-0.63574-1.9443-1.5654-2.6509-2.5273-1.4028-1.9443-2.4077-4.0503-3.7212-5.9248-1.291-1.8853-2.8599-3.6006-4.6968-4.981-1.8276-1.3804-3.9131-2.4946-6.1992-2.9688z"/>
<path d="m638.52 290.06s22.313-35.329 44.626-27.892c22.313 7.4395 27.892 26.035 27.892 26.035s-14.878 20.456-29.753 22.313c-14.874 1.8584-42.766-20.456-42.766-20.456z" fill="#fff"/>
<path d="m600.84 291.15s-23.152-36.656-46.302-28.94c-23.152 7.7158-28.94 27.012-28.94 27.012s15.435 21.224 30.868 23.152c15.434 1.9258 44.374-21.224 44.374-21.224z" fill="#fff"/>
	<defs>
		<path id="f" d="m638.52 290.06s25.104-19.986 47.882-15.34c23.045 4.7012 24.637 13.483 24.637 13.483s-14.222 20.641-30.216 22.311c-15.574 1.6255-42.303-20.454-42.303-20.454z"/>
	</defs>
	<clipPath id="g">
		<use overflow="visible" xlink:href="#f"/>
	</clipPath>
	<ellipse cx="677.8" cy="289.6" rx="20.222" ry="33.47" clip-path="url(#g)" fill="#231F20"/>
	<defs>
		<path id="e" d="m600.84 291.15s-23.942-16.28-48.312-15.033c-18.129 0.9292-20.456 7.4355-26.93 13.104 0 0 13.913 21.062 31.113 23.155 15.439 1.876 44.128-21.227 44.128-21.227z"/>
	</defs>
	<clipPath id="h">
		<use overflow="visible" xlink:href="#e"/>
	</clipPath>
	<ellipse cx="560.66" cy="288.21" rx="20.221" ry="33.469" clip-path="url(#h)" fill="#231F20"/>
<path d="m686.41 274.72c19.063 3.8896 23.435 10.555 24.383 12.75-1.2861-3.4805-9.0947-22.684-28.801-29.253-22.314-7.4385-43.463 31.843-43.463 31.843s25.104-19.986 47.882-15.34z" fill="#CF9E76"/>
<path d="m552.52 276.12c24.37-1.2471 48.312 15.033 48.312 15.033s-23.305-39.252-46.454-31.536c-23.152 7.7168-28.788 29.608-28.788 29.608 6.4741-5.6689 8.8003-12.175 26.93-13.104z" fill="#CF9E76"/>
<path d="m493.49 349.57c24.999-78.004 31.61-91.111 50.206-92.971 18.595-1.8599 20.456 9.2959 24.174 14.875 3.7178 5.5786 14.875 27.895 26.031 35.33 11.157 7.4365-20.456-55.783 20.453-57.643 40.909-1.8608 33.473-44.626 53.925-35.331 20.453 9.2964 27.892 76.239 53.923 48.347 12.036-12.897 11.619-1.8594 7.9014 26.032s2.3262 47.881 2.3262 47.881 44.06-39.277 53.457-56.249c18.391-33.211 19.987-93.899-15.34-145.96-35.328-52.065-98.547-66.94-130.16-66.94-31.612 0-87.396 1.8608-113.43 27.892-26.032 26.032-63.222 83.675-63.222 132.02 0 48.344 9.2954 128.3 5.5776 146.9-3.7183 18.594 24.173-63.221 18.596-79.957-5.5786-16.734 5.5776 55.783 5.5776 55.783z"/>
<path d="m1069 521.1s9.7627 2.7905-58.572-12.551c-68.334-15.341-221.74-39.048-237.08-40.442-15.34-1.3955-13.945-33.005-13.945-33.005s47.92-47.52 63.223-115.29c13.016-57.643-13.018-134.81-21.386-161.31-8.3667-26.497-44.625-94.831-64.15-105.99-19.525-11.156-101.8-32.075-114.36-25.103-12.551 6.9731-92.042 32.076-101.8 43.232-9.7622 11.157-43.232 66.94-51.6 79.491-8.3672 12.551-8.3672 30.681-8.3672 44.626 0 13.946-15.34 111.57-16.735 118.54-1.3945 6.9731-58.573 44.626-47.417 61.362 11.158 16.734 73.914 92.042 73.914 92.042s-20.919 9.7622-30.681 9.7622c-9.7627 0-47.339-1.1113-59.967 6.9731-37.818 24.209-71.125 143.64-80.886 160.38-9.7622 16.734-72.519 119.93-80.886 131.09-8.3672 11.155-34.865 69.729-34.865 69.729s44.627-6.9736 65.545 12.551c20.919 19.524 64.151 58.573 64.151 58.573s22.313-61.362 29.286-75.308c6.9731-13.946 16.735-52.994 29.286-92.042 12.552-39.048 22.314-89.253 27.892-83.675 5.5786 5.5776 29.287 124.12 33.47 136.67s-34.865 154.8-41.837 192.45c-6.9727 37.654-34.864 291.47-34.864 327.73s-19.525 191.06-19.525 206.4c0 15.341 5.5786 26.497 12.552 13.946s64.15-384.9 64.15-404.43c0-19.524 12.551-157.59 18.13-158.98 5.5776-1.3955 44.626-19.525 44.626-19.525l96.226-241.26 16.735-33.47-78.097-203.61-96.226-105.99 52.994-32.075s9.7617-140.85 32.075-150.62c22.312-9.7622 72.518-30.68 89.253-30.68 16.734 0 142.25 46.021 149.22 51.6 6.9717 5.5776 23.917 24.04 32.075 60.433 6.0439 26.962 11.156 53.922 11.156 53.922l-71.123 83.675 2.7881 68.334-114.35 207.79s19.523 101.8 25.102 122.72c5.5776 20.92 33.469 122.72 33.469 122.72s16.735 9.7627 33.471 16.734c16.735 6.9736 75.308 33.471 75.308 33.471l57.177 140.85s145.04 348.64 145.04 368.17c0 19.523 8.3682 30.681 27.892 30.681h43.232s-51.6-85.069-73.912-121.33c-22.313-36.259-87.858-211.98-96.227-231.5-8.3672-19.524-48.81-139.46-59.967-184.08-11.156-44.627-34.864-110.17-34.864-122.72 0-12.552 8.3672-111.57 11.156-140.85 2.7896-29.286 2.7896-66.939 11.156-73.913 8.3682-6.9731 89.254 5.5786 89.254 5.5786s78.096 8.3672 100.41 9.7627c22.312 1.394 29.285-43.233 43.231-78.098 13.945-34.864 39.048-64.151 39.048-64.151z" fill="#A3A550"/>
<path d="m737.07 1134.7c25.604-6.8965 73.913-2.7886 105.99 4.1836 32.076 6.9741 65.545 68.335 69.729 105.99 4.1846 37.653 4.1846 105.99-50.204 108.78-54.388 2.7891-92.042 4.1836-94.832-13.946-2.7891-18.129 2.7896-157.59-9.7622-170.14-12.552-12.552-33.936-20.454-33.936-20.454s0.93164-11.156 13.017-14.412z" fill="#B07E09"/>
<path d="m231.31 1074.7s-94.197-91.41-119-91.113c-39.048 0.46631-40.909 59.504-40.909 59.504l-31.61 89.253s-24.173 89.256-33.469 119c-9.2969 29.75-5.5786 65.077-5.5786 65.077s8.3672 17.667 19.524 34.401c11.156 16.734 20.918 32.075 20.918 32.075l19.524 11.157s15.591 9.0967 23.708 12.551c7.6045 3.2363 39.048 13.946 39.048 13.946l42.766-29.75s5.5815-40.911 1.8608-48.348c-3.7207-7.4355 48.345-13.014 48.345-13.014s1.8569-40.905-5.5786-61.361c-7.436-20.456-56.712-23.245-51.133-51.137 2.5522-12.764 8.3696-19.527 21.384-49.276 13.014-29.749 50.205-92.972 50.205-92.972z" fill="#B25538"/>
<path d="m175.52 786.54s91.111 24.171 113.42 46.484c22.313 22.313 70.661 76.239 70.661 76.239l-27.892 20.453-5.5791 37.188s-53.922-5.1123-63.222-5.1123c-9.2988 0 24.174-24.639-27.892-56.249-52.065-31.609-56.177-3.7178-56.177-3.7178l-38.654-24.174 35.33-91.11z" fill="#A3A550"/>
<path d="m290.81 1043.1s-31.612-59.501-68.8-78.096c-37.187-18.595-130.16-39.049-130.16-39.049l-33.469 79.955 18.592 14.877s-0.48535-11.264 7.4385-11.157c18.686 0.25098 89.253 42.767 89.253 42.767l42.766 50.205 20.456 3.7178 53.922-63.219z" fill="#B25538"/>
<path d="m105 1058s-40.91-26.032-48.347-20.454c-7.436 5.5786-24.17 68.798-24.17 68.798l9.2954 21.385s11.157-22.313 27.892-11.157c16.735 11.157 35.33-58.571 35.33-58.571z" fill="#B25538"/>
<path d="m1380 699.61l192.45-2.7891s9.7627 6.9727 25.103 15.34c15.342 8.3682 40.443 1.395 40.443 1.395 13.945 15.34 79.49 29.286 90.648 9.7627 11.155-19.525 11.155-52.995 11.155-52.995s13.946-9.7622 13.946-25.103c0-15.34 9.7617-29.285 8.3672-37.652-1.3936-8.3682 26.498-13.946 26.498-13.946s18.129-51.6 11.155-62.757c-6.9717-11.156-100.41-4.1836-100.41-4.1836s-20.92-23.708-33.471-32.075-39.047-9.7622-46.021-5.5786c-6.9717 4.1836-39.048 2.7896-39.048 2.7896s-12.552 54.389-12.552 62.756 0 8.3672 0 8.3672l-170.14-22.313s-22.314 44.626-22.314 73.913c-1e-7 29.287 4.1846 85.07 4.1846 85.07z" fill="#B25538"/>
<path d="m1421 698.06s-22.881-6.8223-22.881-26.347c0-19.524-5.5791-33.47-5.5791-48.81s1.3955-65.546 5.5791-73.914c4.1836-8.3672 15.881-4.9292 15.881-4.9292l3.6426-32.724s-35.954-2.7896-48.811-2.7896c-18.129 0-52.994 1.395-52.994 1.395s-6.9727 69.729-6.9727 97.621 15.341 115.75 15.341 115.75 47.415 0 54.388 0c39.049 0 42.406-25.253 42.406-25.253z" fill="#B25538"/>
<path d="m1113.6 548.2s8.3672-50.811 2.7891-53.6-36.26-4.1836-36.26-4.1836l-30.68-15.341-4.1836 15.341-29.287-15.341s1.3955 11.157-5.5781 33.47c-6.9717 22.313-32.075 54.388-32.075 78.096s-9.7627 90.648-9.7627 90.648l22.314 5.5781 2.7891 16.735 69.729 12.551 27.58-67.095s-12.049 2.9619-16 0c-16.743-12.55 9.3379-59.812 13.521-73.757 4.1836-13.946 6.2998-13.509 10.479-18.243 3.6914-4.1816 14.624-4.8594 14.624-4.8594z" fill="#A3A550"/>
<path d="m594.3 669.64c14.417 0.23438 23.008 7.1416 22.839 21.562-0.17773 15.18-11.045 18.012-26.225 17.765-14.452-0.2373-25.678-4.1592-25.38-18.611 0.31592-15.147 13.618-20.96 28.766-20.715z" fill="#4C3D38"/>
<path d="m303.82 1623.3s61.358 0 87.393 16.734c26.034 16.734 89.253 53.926 89.253 53.926s-26.031 74.37-31.61 92.968c-5.5776 18.599-11.157 89.254-11.157 89.254s-18.595 13.02-35.33 20.455c-16.735 7.4365-117.14 14.877-130.16-16.735-13.017-31.611-16.735-5.5771-16.735-5.5771l35.327-107.85s-5.5752-94.832-1.8569-104.13c3.7178-9.2988 14.875-39.048 14.875-39.048z" fill="#E6E7E8"/>
<path d="m685.01 1693.9s50.202-52.068 79.955-57.646c29.752-5.5791 103.43 9.2979 103.43 9.2979s-1.8633 74.382 1.8569 98.552c3.7207 24.171 18.593 100.41 18.593 100.41s-17.892 27.887-30.905 42.764c-13.018 14.878-81.815 29.755-94.832 24.176-13.017-5.5771-50.208-46.483-59.504-39.048-9.2959 7.4355-3.7207-78.102-5.5781-107.85-1.8579-29.749-13.015-70.655-13.015-70.655z" fill="#E6E7E8"/>
<path d="m374.48 2259.2s-37.188 148.76-37.188 172.93 5.5786 37.189 5.5786 37.189l-14.875 35.328s-7.4385 13.015-7.4385 39.049-37.191 46.483-79.957 57.641c-42.767 11.157-215.69-5.5791-215.69-5.5791l7.4385-37.185s48.345-13.02 65.08-26.034c16.735-13.015 83.675-53.926 83.675-53.926l-37.188-221.27s50.204-39.05 66.939-37.192c16.735 1.8594 65.077 22.308 85.533 29.751 20.456 7.4414 78.096 9.2979 78.096 9.2979z" fill="#B25538"/>
<path d="m755.67 2279.7s65.08-39.049 104.13-39.049c39.048 0 91.117 16.736 113.43 22.314 22.312 5.5771 42.763 14.872 42.763 14.872s-53.919 198.96-48.342 211.98c5.5791 13.02 78.097 55.783 78.097 55.783l46.484 1.8623-1.8574 39.049s-102.27 14.872-130.17 14.872c-52.062 0-152.47-18.594-154.33-40.906-1.8608-22.313 1.8599-33.471 1.8599-33.471l-18.595-42.769 11.157-33.47-44.627-171.06z" fill="#B25538"/>
<path d="m1694.7 0l26.782 289.93s-0.85156 50.073 10.404 55.927c12.54 6.521 43.945 18.421 47.53 6.9619 23.13-73.899 43.586-213.36 43.586-213.36s9.293 228.71 9.293 273.34c0 25.965-28.005 92.533-29.749 163.62-1.9619 79.94 22.312 163.63 22.312 163.63s-74.376-74.375-50.204-254.74c9.1406-68.212-66.009-55.745-66.009-55.745l-32.543 343.95-130.16 1561.9-53.926 245.44-9.293-278.91 122.72-1543.3 39.048-472.3 50.204-286.35z" fill="#C1BFB6"/>
<path d="m1267.2 1692.1s-26.034 111.57 0 200.82c38.699 132.67 223.13 159.91 223.13 159.91l442.54 78.091s-422.19 160.54-446.27 167.35c-161.06 45.553-78.097 290.07-78.097 290.07s-96.689-52.062-200.82-152.47c-81.42-78.51-118.67-288.65-115.28-368.17 7.4365-174.79 174.79-375.6 174.79-375.6z" fill="#C1BFB6"/>
<polygon points="1694.7 0 1721.5 301.08 1646.3 680.55 1644.5 291.93" fill="#905F66"/>
<polygon points="1534.8 2086.3 1551.5 2307.6 1492 2592.1 1482.7 2302" fill="#8E5D63"/>
<path d="m1614.3 714.95c13.946 15.34 103.2 27.892 114.36 8.3682 11.155-19.525 11.155-52.995 11.155-52.995s13.946-9.7622 13.946-25.103c0-15.34 9.7617-29.285 8.3672-37.652-1.3936-8.3682 9.6914-9.0381 15.34-13.946 12.035-10.452 18.13-51.6 11.158-62.757-6.9746-11.156-89.254-4.1836-89.254-4.1836s-20.92-23.708-33.471-32.075-39.047-9.7622-46.021-5.5786c-1.4365 0.86377-22.944 20.895-1.3955 44.626 8.6846 9.5586 46.201 31.343 62.758 22.314 15.341-8.3682 1.3945 6.9717 1.3945 27.892 0 11.776 6.9727 23.708 6.9727 23.708s-29.553 8.4053-33.471 29.286c-4.1836 22.313 15.842 29.172 15.842 29.172s-34.025-1.6943-45.127 7.0869c-12.944 10.241-12.553 41.837-12.553 41.837z" fill="#B25538"/>
</svg>